<?xml version="1.0" standalone="no"?>
<!DOCTYPE svg PUBLIC "-//W3C//DTD SVG 1.1//EN" "http://www.w3.org/Graphics/SVG/1.1/DTD/svg11.dtd">
<svg width="160" height="161" viewBox="0 -161 160 161" xmlns="http://www.w3.org/2000/svg" version="1.1">
<title>OpenSCAD Model</title>
<path d="
M 83.8166,-0.14219 L 84.8492,-0.760736 L 85.2076,-0.912286 L 85.2836,-1.71731 L 85.5371,-2.63653 L 85.9444,-3.48156
 L 86.4907,-4.22189 L 87.1563,-4.83074 L 87.917,-5.28611 L 88.7455,-5.57156 L 89.6117,-5.67674 L 90.4845,-5.59786
 L 91.3321,-5.33778 L 92.124,-4.90591 L 92.8316,-4.31782 L 93.4293,-3.5948 L 93.8954,-2.76298 L 94.1619,-1.99954
 L 94.5461,-1.93815 L 95.6174,-1.60905 L 96.7431,-1.88973 L 97.5202,-2.54531 L 97.8496,-2.75237 L 97.7954,-3.55917
 L 97.8982,-4.50715 L 98.1647,-5.40658 L 98.5852,-6.22495 L 99.1444,-6.93269 L 99.8223,-7.50419 L 100.594,-7.91883
 L 101.432,-8.1616 L 102.306,-8.22375 L 103.185,-8.10301 L 104.036,-7.80375 L 104.829,-7.33679 L 105.534,-6.719
 L 106.128,-5.97273 L 106.513,-5.26191 L 106.903,-5.26296 L 107.88,-5.1283 L 109.138,-5.63679 L 109.741,-6.33932
 L 110.033,-6.59655 L 109.85,-7.38421 L 109.799,-8.33642 L 109.918,-9.26693 L 110.202,-10.1422 L 110.64,-10.9304
 L 111.218,-11.6033 L 111.913,-12.1364 L 112.701,-12.5105 L 113.554,-12.712 L 114.441,-12.7337 L 115.328,-12.5749
 L 116.186,-12.2411 L 116.982,-11.7446 L 117.687,-11.1032 L 118.182,-10.4634 L 118.566,-10.5268 L 119.484,-10.549
 L 120.716,-11.2603 L 121.194,-12.0445 L 121.441,-12.3453 L 121.134,-13.0934 L 120.932,-14.0251 L 120.9,-14.9627
 L 121.039,-15.8721 L 121.346,-16.7205 L 121.808,-17.4772 L 122.409,-18.115 L 123.127,-18.6107 L 123.936,-18.9464
 L 124.808,-19.11 L 125.71,-19.0957 L 126.609,-18.9038 L 127.475,-18.5413 L 128.274,-18.0214 L 128.865,-17.4692
 L 129.233,-17.5934 L 130.143,-17.7639 L 131.213,-18.5996 L 131.585,-19.5132 L 131.78,-19.8496 L 131.357,-20.5388
 L 131.008,-21.426 L 130.826,-22.3462 L 130.818,-23.2663 L 130.984,-24.1528 L 131.319,-24.9739 L 131.809,-25.6998
 L 132.439,-26.3043 L 133.184,-26.7655 L 134.018,-27.0668 L 134.91,-27.1973 L 135.829,-27.1522 L 136.741,-26.9332
 L 137.614,-26.5483 L 138.285,-26.098 L 138.629,-26.2797 L 139.586,-26.6249 L 140.392,-27.4595 L 140.642,-28.5518
 L 140.781,-28.9152 L 140.253,-29.5277 L 139.766,-30.3473 L 139.439,-31.2264 L 139.283,-32.1332 L 139.305,-33.035
 L 139.504,-33.8991 L 139.872,-34.6943 L 140.396,-35.3919 L 141.057,-35.9667 L 141.832,-36.3979 L 142.692,-36.6698
 L 143.606,-36.7728 L 144.542,-36.703 L 145.465,-36.4629 L 146.2,-36.1262 L 146.51,-36.3608 L 147.562,-36.9458
 L 148.048,-37.6142 L 148.133,-38.9263 L 148.212,-39.3073 L 147.592,-39.8272 L 146.98,-40.558 L 146.516,-41.3732
 L 146.217,-42.2434 L 146.094,-43.137 L 146.151,-44.0217 L 146.387,-44.8657 L 146.792,-45.6384 L 147.353,-46.3118
 L 148.049,-46.8616 L 148.854,-47.268 L 149.74,-47.5163 L 150.674,-47.5975 L 151.624,-47.5086 L 152.403,-47.2942
 L 152.672,-47.5755 L 153.622,-48.326 L 153.968,-49.2758 L 153.862,-50.368 L 153.879,-50.7567 L 153.184,-51.1705
 L 152.462,-51.7936 L 151.873,-52.5238 L 151.439,-53.3348 L 151.174,-54.1971 L 151.089,-55.0796 L 151.186,-55.9504
 L 151.462,-56.7782 L 151.908,-57.5328 L 152.506,-58.1871 L 153.236,-58.7174 L 154.07,-59.1046 L 154.98,-59.3346
 L 155.931,-59.3991 L 156.735,-59.3126 L 156.955,-59.6334 L 157.661,-60.4048 L 157.926,-61.6524 L 157.682,-62.5806
 L 157.636,-62.967 L 156.884,-63.2639 L 156.071,-63.7632 L 155.373,-64.3895 L 154.814,-65.1202 L 154.414,-65.9289
 L 154.188,-66.7863 L 154.145,-67.6615 L 154.285,-68.5228 L 154.603,-69.3391 L 155.089,-70.0809 L 155.724,-70.7214
 L 156.486,-71.2375 L 157.347,-71.6104 L 158.275,-71.8267 L 159.083,-71.8702 L 159.248,-72.2222 L 159.766,-73.0116
 L 159.864,-74.4144 L 159.493,-75.2477 L 159.385,-75.6217 L 158.595,-75.7942 L 157.714,-76.1567 L 156.924,-76.6629
 L 156.255,-77.2944 L 155.73,-78.0285 L 155.37,-78.8386 L 155.187,-79.6955 L 155.187,-80.5681 L 155.37,-81.4249
 L 155.73,-82.235 L 156.255,-82.9691 L 156.924,-83.6007 L 157.714,-84.1068 L 158.595,-84.4693 L 159.385,-84.6418
 L 159.493,-85.0158 L 159.864,-85.8491 L 159.766,-87.252 L 159.248,-88.0414 L 159.083,-88.3933 L 158.275,-88.4368
 L 157.347,-88.6532 L 156.486,-89.0261 L 155.724,-89.5421 L 155.089,-90.1826 L 154.603,-90.9244 L 154.285,-91.7407
 L 154.145,-92.6021 L 154.188,-93.4772 L 154.414,-94.3347 L 154.814,-95.1433 L 155.373,-95.874 L 156.071,-96.5003
 L 156.884,-96.9996 L 157.636,-97.2966 L 157.682,-97.683 L 157.926,-98.6111 L 157.661,-99.8587 L 156.955,-100.63
 L 156.735,-100.951 L 155.931,-100.864 L 154.98,-100.929 L 154.07,-101.159 L 153.236,-101.546 L 152.506,-102.076
 L 151.908,-102.731 L 151.462,-103.485 L 151.186,-104.313 L 151.089,-105.184 L 151.174,-106.066 L 151.439,-106.929
 L 151.873,-107.74 L 152.462,-108.47 L 153.184,-109.093 L 153.879,-109.507 L 153.862,-109.896 L 153.968,-110.988
 L 153.622,-111.938 L 152.672,-112.688 L 152.403,-112.969 L 151.624,-112.755 L 150.674,-112.666 L 149.74,-112.747
 L 148.854,-112.995 L 148.049,-113.402 L 147.353,-113.952 L 146.792,-114.625 L 146.387,-115.398 L 146.151,-116.242
 L 146.094,-117.127 L 146.217,-118.02 L 146.516,-118.89 L 146.98,-119.706 L 147.592,-120.436 L 148.212,-120.956
 L 148.133,-121.337 L 148.048,-122.649 L 147.562,-123.318 L 146.51,-123.903 L 146.2,-124.137 L 145.465,-123.801
 L 144.542,-123.561 L 143.606,-123.491 L 142.692,-123.594 L 141.832,-123.866 L 141.057,-124.297 L 140.396,-124.872
 L 139.872,-125.569 L 139.504,-126.364 L 139.305,-127.229 L 139.283,-128.13 L 139.439,-129.037 L 139.766,-129.916
 L 140.253,-130.736 L 140.781,-131.348 L 140.642,-131.712 L 140.392,-132.804 L 139.586,-133.639 L 138.629,-133.984
 L 138.285,-134.166 L 137.614,-133.715 L 136.741,-133.33 L 135.829,-133.111 L 134.91,-133.066 L 134.018,-133.197
 L 133.184,-133.498 L 132.439,-133.959 L 131.809,-134.564 L 131.319,-135.29 L 130.984,-136.111 L 130.818,-136.997
 L 130.826,-137.917 L 131.008,-138.838 L 131.357,-139.725 L 131.78,-140.414 L 131.585,-140.75 L 131.213,-141.664
 L 130.143,-142.5 L 129.233,-142.67 L 128.865,-142.794 L 128.274,-142.242 L 127.475,-141.722 L 126.609,-141.36
 L 125.71,-141.168 L 124.808,-141.153 L 123.936,-141.317 L 123.127,-141.653 L 122.409,-142.149 L 121.808,-142.786
 L 121.346,-143.543 L 121.039,-144.391 L 120.9,-145.301 L 120.932,-146.238 L 121.134,-147.17 L 121.441,-147.918
 L 121.194,-148.219 L 120.716,-149.003 L 119.484,-149.715 L 118.566,-149.737 L 118.182,-149.8 L 117.687,-149.16
 L 116.982,-148.519 L 116.186,-148.022 L 115.328,-147.689 L 114.441,-147.53 L 113.554,-147.552 L 112.701,-147.753
 L 111.913,-148.127 L 111.218,-148.66 L 110.64,-149.333 L 110.202,-150.121 L 109.918,-150.997 L 109.799,-151.927
 L 109.85,-152.879 L 110.033,-153.667 L 109.741,-153.924 L 109.138,-154.627 L 107.88,-155.135 L 106.903,-155.001
 L 106.513,-155.002 L 106.128,-154.291 L 105.534,-153.545 L 104.829,-152.927 L 104.036,-152.46 L 103.185,-152.161
 L 102.306,-152.04 L 101.432,-152.102 L 100.594,-152.345 L 99.8223,-152.759 L 99.1444,-153.331 L 98.5852,-154.039
 L 98.1647,-154.857 L 97.8982,-155.756 L 97.7954,-156.704 L 97.8496,-157.511 L 97.5202,-157.718 L 96.7431,-158.374
 L 95.6174,-158.654 L 94.5461,-158.325 L 94.1619,-158.264 L 93.8954,-157.501 L 93.4293,-156.669 L 92.8316,-155.946
 L 92.124,-155.358 L 91.3321,-154.926 L 90.4845,-154.666 L 89.6117,-154.587 L 88.7455,-154.692 L 87.917,-154.977
 L 87.1563,-155.433 L 86.4907,-156.042 L 85.9444,-156.782 L 85.5371,-157.627 L 85.2836,-158.546 L 85.2076,-159.351
 L 84.8492,-159.503 L 83.8166,-160.121 L 82.9949,-160.208 L 81.8163,-159.625 L 81.4469,-159.503 L 81.3064,-158.707
 L 80.9797,-157.811 L 80.5057,-157.001 L 79.9017,-156.307 L 79.1893,-155.754 L 78.3943,-155.361 L 77.5456,-155.143
 L 76.6737,-155.108 L 75.8101,-155.257 L 74.9862,-155.584 L 74.2316,-156.079 L 73.5736,-156.722 L 73.036,-157.491
 L 72.6383,-158.357 L 72.4342,-159.14 L 72.0561,-159.232 L 70.9312,-159.679 L 69.9358,-159.504 L 69.0429,-158.866
 L 68.6979,-158.686 L 68.6869,-157.877 L 68.5082,-156.941 L 68.1702,-156.066 L 67.6853,-155.284 L 67.0708,-154.623
 L 66.3492,-154.108 L 65.5464,-153.757 L 64.6914,-153.583 L 63.8151,-153.591 L 62.9493,-153.782 L 62.1252,-154.149
 L 61.3726,-154.678 L 60.7187,-155.351 L 60.1871,-156.142 L 59.8601,-156.882 L 59.4722,-156.912 L 58.4512,-157.138
 L 57.2381,-156.743 L 56.5566,-156.067 L 56.245,-155.835 L 56.3638,-155.035 L 56.3376,-154.082 L 56.1444,-153.164
 L 55.7912,-152.314 L 55.2907,-151.564 L 54.661,-150.939 L 53.9249,-150.464 L 53.109,-150.155 L 52.2428,-150.022
 L 51.3575,-150.072 L 50.4853,-150.302 L 49.6575,-150.703 L 48.9042,-151.262 L 48.2525,-151.959 L 47.8111,-152.636
 L 47.4233,-152.604 L 46.4811,-152.657 L 45.2172,-152.04 L 44.681,-151.302 L 44.4107,-151.023 L 44.6564,-150.252
 L 44.7834,-149.307 L 44.7399,-148.37 L 44.5275,-147.475 L 44.1539,-146.654 L 43.6325,-145.937 L 42.9822,-145.349
 L 42.2265,-144.913 L 41.3927,-144.644 L 40.5109,-144.551 L 39.6131,-144.637 L 38.7316,-144.901 L 37.8984,-145.332
 L 37.1435,-145.915 L 36.5991,-146.512 L 36.2216,-146.418 L 35.3144,-146.323 L 34.1486,-145.537 L 33.7235,-144.694
 L 33.5016,-144.374 L 33.8676,-143.653 L 34.1446,-142.741 L 34.2521,-141.809 L 34.186,-140.891 L 33.9489,-140.021
 L 33.5493,-139.23 L 33.0016,-138.546 L 32.3257,-137.994 L 31.5459,-137.594 L 30.6905,-137.361 L 29.7904,-137.302
 L 28.878,-137.421 L 27.9864,-137.713 L 27.1479,-138.167 L 26.5146,-138.67 L 26.1571,-138.516 L 25.2309,-138.264
 L 24.2831,-137.411 L 23.968,-136.414 L 23.8002,-136.063 L 24.2772,-135.41 L 24.6969,-134.553 L 24.9524,-133.651
 L 25.0345,-132.734 L 24.94,-131.837 L 24.6726,-130.992 L 24.2417,-130.229 L 23.6631,-129.576 L 22.9575,-129.056
 L 22.1506,-128.689 L 21.2715,-128.487 L 20.3518,-128.458 L 19.425,-128.603 L 18.5245,-128.916 L 17.8188,-129.311
 L 17.4905,-129.102 L 16.4917,-128.648 L 15.842,-127.873 L 15.667,-126.675 L 15.5578,-126.302 L 16.1333,-125.734
 L 16.685,-124.956 L 17.082,-124.106 L 17.3099,-123.215 L 17.3606,-122.314 L 17.2322,-121.437 L 16.9293,-120.615
 L 16.463,-119.877 L 15.8499,-119.251 L 15.1124,-118.759 L 14.277,-118.419 L 13.374,-118.243 L 12.4359,-118.237
 L 11.4967,-118.402 L 10.7369,-118.678 L 10.4463,-118.42 L 9.3524,-117.69 L 9.01632,-116.935 L 9.0357,-115.732
 L 8.98777,-115.346 L 9.64694,-114.877 L 10.3162,-114.198 L 10.8444,-113.423 L 11.2124,-112.58 L 11.4069,-111.699
 L 11.4209,-110.812 L 11.2539,-109.952 L 10.9118,-109.149 L 10.4072,-108.433 L 9.75811,-107.829 L 8.98812,-107.359
 L 8.12504,-107.04 L 7.20005,-106.884 L 6.24659,-106.896 L 5.4522,-107.047 L 5.20693,-106.745 L 4.38628,-105.982
 L 4.06651,-104.867 L 4.24572,-103.866 L 4.26035,-103.477 L 4.98611,-103.121 L 5.75568,-102.558 L 6.40139,-101.877
 L 6.8999,-101.104 L 7.23316,-100.266 L 7.38918,-99.3931 L 7.36228,-98.5172 L 7.15345,-97.6699 L 6.77024,-96.8819
 L 6.22648,-96.1816 L 5.54185,-95.5943 L 4.74107,-95.1412 L 3.8531,-94.8387 L 2.91001,-94.6979 L 2.10171,-94.7194
 L 1.90807,-94.382 L 1.30288,-93.6031 L 1.11398,-92.2589 L 1.42117,-91.3859 L 1.49796,-91.0044 L 2.27151,-90.769
 L 3.12144,-90.3367 L 3.86793,-89.7686 L 4.48403,-89.0853 L 4.94744,-88.3114 L 5.24145,-87.4749 L 5.3554,-86.6061
 L 5.28518,-85.7363 L 5.03333,-84.897 L 4.60897,-84.1185 L 4.0274,-83.429 L 3.30967,-82.8533 L 2.48171,-82.4123
 L 1.57345,-82.122 L 0.772149,-82.0136 L 0.635156,-81.6495 L 0.195199,-80.843 L 0.195199,-79.4205 L 0.635156,-78.6141
 L 0.772149,-78.2499 L 1.57345,-78.1416 L 2.48171,-77.8512 L 3.30967,-77.4102 L 4.0274,-76.8346 L 4.60897,-76.145
 L 5.03333,-75.3666 L 5.28518,-74.5273 L 5.3554,-73.6575 L 5.24145,-72.7886 L 4.94744,-71.9522 L 4.48403,-71.1783
 L 3.86793,-70.4949 L 3.12144,-69.9269 L 2.27151,-69.4946 L 1.49796,-69.2591 L 1.42117,-68.8777 L 1.11398,-68.0046
 L 1.30288,-66.6605 L 1.90807,-65.8816 L 2.10171,-65.5441 L 2.91001,-65.5657 L 3.8531,-65.4248 L 4.74107,-65.1223
 L 5.54185,-64.6693 L 6.22648,-64.082 L 6.77024,-63.3816 L 7.15345,-62.5936 L 7.36228,-61.7463 L 7.38918,-60.8705
 L 7.23316,-59.9977 L 6.8999,-59.1595 L 6.40139,-58.3862 L 5.75568,-57.7057 L 4.98611,-57.1427 L 4.26035,-56.7861
 L 4.24572,-56.3973 L 4.06651,-55.3966 L 4.38628,-54.2814 L 5.20693,-53.5182 L 5.4522,-53.2161 L 6.24659,-53.3671
 L 7.20005,-53.3793 L 8.12504,-53.2232 L 8.98812,-52.9044 L 9.75811,-52.4346 L 10.4072,-51.8305 L 10.9118,-51.1142
 L 11.2539,-50.3114 L 11.4209,-49.4512 L 11.4069,-48.5646 L 11.2124,-47.6838 L 10.8444,-46.8406 L 10.3162,-46.0653
 L 9.64694,-45.3861 L 8.98777,-44.9178 L 9.0357,-44.5317 L 9.01632,-43.3282 L 9.3524,-42.5734 L 10.4463,-41.844
 L 10.7369,-41.5852 L 11.4967,-41.8617 L 12.4359,-42.0267 L 13.374,-42.021 L 14.277,-41.8448 L 15.1124,-41.5045
 L 15.8499,-41.0124 L 16.463,-40.3863 L 16.9293,-39.6488 L 17.2322,-38.8265 L 17.3606,-37.9492 L 17.3099,-37.0486
 L 17.082,-36.1572 L 16.685,-35.3073 L 16.1333,-34.5295 L 15.5578,-33.9615 L 15.667,-33.5881 L 15.842,-32.3902
 L 16.4917,-31.6159 L 17.4905,-31.1615 L 17.8188,-30.9527 L 18.5245,-31.3474 L 19.425,-31.6609 L 20.3518,-31.8058
 L 21.2715,-31.7767 L 22.1506,-31.5749 L 22.9575,-31.2075 L 23.6631,-30.6878 L 24.2417,-30.0346 L 24.6726,-29.2716
 L 24.94,-28.4262 L 25.0345,-27.5292 L 24.9524,-26.6128 L 24.6969,-25.7102 L 24.2772,-24.854 L 23.8002,-24.201
 L 23.968,-23.85 L 24.2831,-22.8529 L 25.2309,-21.9994 L 26.1571,-21.7473 L 26.5146,-21.5938 L 27.1479,-22.0967
 L 27.9864,-22.5506 L 28.878,-22.8422 L 29.7904,-22.9611 L 30.6905,-22.9028 L 31.5459,-22.6696 L 32.3257,-22.2698
 L 33.0016,-21.718 L 33.5493,-21.0339 L 33.9489,-20.2424 L 34.186,-19.3721 L 34.2521,-18.4544 L 34.1446,-17.5225
 L 33.8676,-16.6101 L 33.5016,-15.8891 L 33.7235,-15.5695 L 34.1486,-14.7269 L 35.3144,-13.9405 L 36.2216,-13.8452
 L 36.5991,-13.7511 L 37.1435,-14.349 L 37.8984,-14.9315 L 38.7316,-15.3624 L 39.6131,-15.6261 L 40.5109,-15.713
 L 41.3927,-15.62 L 42.2265,-15.3505 L 42.9822,-14.9142 L 43.6325,-14.3269 L 44.1539,-13.6097 L 44.5275,-12.7887
 L 44.7399,-11.8935 L 44.7834,-10.9565 L 44.6564,-10.0114 L 44.4107,-9.24102 L 44.681,-8.96114 L 45.2172,-8.22318
 L 46.4811,-7.60671 L 47.4233,-7.65989 L 47.8111,-7.62754 L 48.2525,-8.30503 L 48.9042,-9.00114 L 49.6575,-9.56011
 L 50.4853,-9.96177 L 51.3575,-10.1916 L 52.2428,-10.2413 L 53.109,-10.109 L 53.9249,-9.79954 L 54.661,-9.32414
 L 55.2907,-8.69993 L 55.7912,-7.94949 L 56.1444,-7.09994 L 56.3376,-6.18198 L 56.3638,-5.2288 L 56.245,-4.42898
 L 56.5566,-4.19608 L 57.2381,-3.52009 L 58.4512,-3.12594 L 59.4722,-3.35159 L 59.8601,-3.38184 L 60.1871,-4.12138
 L 60.7187,-4.91299 L 61.3726,-5.58558 L 62.1252,-6.11482 L 62.9493,-6.48158 L 63.8151,-6.6726 L 64.6914,-6.68099
 L 65.5464,-6.50645 L 66.3492,-6.15527 L 67.0708,-5.64016 L 67.6853,-4.97973 L 68.1702,-4.19784 L 68.5082,-3.32276
 L 68.6869,-2.38613 L 68.6979,-1.5776 L 69.0429,-1.39771 L 69.9358,-0.759866 L 70.9312,-0.584359 L 72.0561,-1.03184
 L 72.4342,-1.12394 L 72.6383,-1.90633 L 73.036,-2.77299 L 73.5736,-3.54176 L 74.2316,-4.18485 L 74.9862,-4.67907
 L 75.8101,-5.00651 L 76.6737,-5.15534 L 77.5456,-5.12022 L 78.3943,-4.90237 L 79.1893,-4.50968 L 79.9017,-3.95637
 L 80.5057,-3.2624 L 80.9797,-2.45286 L 81.3064,-1.55703 L 81.4469,-0.760736 L 81.8163,-0.638513 L 82.9949,-0.05581
 z
M 72.6965,-9.38967 L 62.9234,-11.1129 L 53.4853,-14.1795 L 44.5659,-18.5299 L 36.3387,-24.0792 L 28.9639,-30.7195
 L 22.585,-38.3216 L 17.3261,-46.7374 L 13.2898,-55.8033 L 10.5544,-65.3426 L 9.17327,-75.1699 L 9.17327,-85.0937
 L 10.5544,-94.9209 L 13.2898,-104.46 L 17.3261,-113.526 L 22.585,-121.942 L 28.9639,-129.544 L 36.3387,-136.184
 L 44.5659,-141.734 L 53.4853,-146.084 L 62.9234,-149.151 L 72.6965,-150.874 L 82.6142,-151.22 L 92.4837,-150.183
 L 102.113,-147.782 L 111.314,-144.065 L 119.908,-139.103 L 127.728,-132.993 L 134.622,-125.854 L 140.455,-117.826
 L 145.114,-109.064 L 148.508,-99.7383 L 150.571,-90.0314 L 151.264,-80.1318 L 150.571,-70.2321 L 148.508,-60.5252
 L 145.114,-51.1999 L 140.455,-42.4377 L 134.622,-34.4092 L 127.728,-27.2706 L 119.908,-21.1609 L 111.314,-16.199
 L 102.113,-12.4814 L 92.4837,-10.0807 L 82.6142,-9.04333 z
M 91.9627,-13.0351 L 101.186,-15.3346 L 109.999,-18.8953 L 118.231,-23.648 L 125.721,-29.5 L 132.324,-36.3375
 L 137.911,-44.0274 L 142.373,-52.4201 L 145.624,-61.3521 L 147.6,-70.6497 L 148.264,-80.1318 L 147.6,-89.6139
 L 145.624,-98.9114 L 142.373,-107.843 L 137.911,-116.236 L 132.324,-123.926 L 125.721,-130.764 L 118.231,-136.616
 L 109.999,-141.368 L 101.186,-144.929 L 91.9627,-147.228 L 82.5095,-148.222 L 73.0101,-147.89 L 63.6492,-146.24
 L 54.6092,-143.302 L 46.0659,-139.136 L 38.1857,-133.82 L 31.1219,-127.46 L 25.012,-120.179 L 19.975,-112.118
 L 16.1088,-103.434 L 13.4888,-94.2972 L 12.166,-84.8844 L 12.166,-75.3791 L 13.4888,-65.9664 L 16.1088,-56.8293
 L 19.975,-48.1459 L 25.012,-40.0849 L 31.1219,-32.8035 L 38.1857,-26.4432 L 46.0659,-21.1279 L 54.6092,-16.9611
 L 63.6492,-14.0238 L 73.0101,-12.3732 L 82.5095,-12.0415 z
M 96.54,-127.475 L 95.5826,-127.685 L 94.6846,-128.077 L 93.8805,-128.638 L 93.2011,-129.344 L 92.6727,-130.17
 L 92.3154,-131.083 L 92.1431,-132.048 L 92.1623,-133.028 L 92.3724,-133.985 L 92.7652,-134.883 L 93.3257,-135.687
 L 94.0322,-136.366 L 94.8577,-136.895 L 95.7705,-137.252 L 96.7354,-137.424 L 97.7154,-137.405 L 98.6728,-137.195
 L 99.5708,-136.802 L 100.375,-136.242 L 101.054,-135.535 L 101.583,-134.71 L 101.94,-133.797 L 102.112,-132.832
 L 102.093,-131.852 L 101.883,-130.895 L 101.49,-129.997 L 100.93,-129.193 L 100.223,-128.513 L 99.3977,-127.985
 L 98.4849,-127.628 L 97.52,-127.455 z
M 75.0491,-31.7731 L 68.3683,-32.9511 L 61.9165,-35.0475 L 55.8193,-38.0213 L 50.1952,-41.8148 L 45.1539,-46.354
 L 40.7933,-51.5507 L 37.1984,-57.3037 L 34.4392,-63.501 L 32.5693,-70.0221 L 31.6252,-76.7399 L 31.6252,-83.5237
 L 32.5693,-90.2415 L 34.4392,-96.7625 L 37.1984,-102.96 L 40.7933,-108.713 L 45.1539,-113.91 L 50.1952,-118.449
 L 55.8193,-122.242 L 61.9165,-125.216 L 68.3683,-127.312 L 75.0491,-128.49 L 81.8287,-128.727 L 88.5754,-128.018
 L 95.1577,-126.377 L 101.448,-123.836 L 107.323,-120.444 L 112.668,-116.267 L 117.381,-111.387 L 121.368,-105.899
 L 124.553,-99.9093 L 126.873,-93.5346 L 128.284,-86.8991 L 128.757,-80.1318 L 128.284,-73.3645 L 126.873,-66.7289
 L 124.553,-60.3542 L 121.368,-54.3644 L 117.381,-48.8762 L 112.668,-43.9964 L 107.323,-39.8198 L 101.448,-36.4279
 L 95.1577,-33.8867 L 88.5754,-32.2455 L 81.8287,-31.5364 z
M 34.4686,-107.598 L 33.5425,-107.919 L 32.6969,-108.415 L 31.9642,-109.066 L 31.3726,-109.847 L 30.9449,-110.729
 L 30.6974,-111.678 L 30.6397,-112.656 L 30.774,-113.627 L 31.0951,-114.553 L 31.5908,-115.399 L 32.2418,-116.132
 L 33.0233,-116.723 L 33.9053,-117.151 L 34.8537,-117.398 L 35.8321,-117.456 L 36.8031,-117.322 L 37.7291,-117.001
 L 38.5748,-116.505 L 39.3075,-115.854 L 39.899,-115.072 L 40.3268,-114.191 L 40.5743,-113.242 L 40.632,-112.264
 L 40.4977,-111.293 L 40.1766,-110.367 L 39.6809,-109.521 L 39.0298,-108.788 L 38.2483,-108.197 L 37.3664,-107.769
 L 36.418,-107.522 L 35.4395,-107.464 z
M 134.156,-75.2279 L 133.218,-75.5124 L 132.354,-75.9744 L 131.596,-76.5962 L 130.974,-77.3539 L 130.512,-78.2184
 L 130.228,-79.1563 L 130.132,-80.1318 L 130.228,-81.1072 L 130.512,-82.0452 L 130.974,-82.9096 L 131.596,-83.6673
 L 132.354,-84.2891 L 133.218,-84.7512 L 134.156,-85.0357 L 135.132,-85.1318 L 136.107,-85.0357 L 137.045,-84.7512
 L 137.91,-84.2891 L 138.667,-83.6673 L 139.289,-82.9096 L 139.751,-82.0452 L 140.036,-81.1072 L 140.132,-80.1318
 L 140.036,-79.1563 L 139.751,-78.2184 L 139.289,-77.3539 L 138.667,-76.5962 L 137.91,-75.9744 L 137.045,-75.5124
 L 136.107,-75.2279 L 135.132,-75.1318 z
M 34.8537,-42.8651 L 33.9053,-43.1126 L 33.0233,-43.5404 L 32.2418,-44.132 L 31.5908,-44.8647 L 31.0951,-45.7103
 L 30.774,-46.6364 L 30.6397,-47.6073 L 30.6974,-48.5858 L 30.9449,-49.5342 L 31.3726,-50.4161 L 31.9642,-51.1976
 L 32.6969,-51.8487 L 33.5425,-52.3443 L 34.4686,-52.6654 L 35.4395,-52.7997 L 36.418,-52.742 L 37.3664,-52.4945
 L 38.2483,-52.0668 L 39.0298,-51.4752 L 39.6809,-50.7425 L 40.1766,-49.8969 L 40.4977,-48.9708 L 40.632,-47.9999
 L 40.5743,-47.0214 L 40.3268,-46.073 L 39.899,-45.1911 L 39.3075,-44.4096 L 38.5748,-43.7585 L 37.7291,-43.2629
 L 36.8031,-42.9417 L 35.8321,-42.8074 z
M 95.7705,-23.0114 L 94.8577,-23.3686 L 94.0322,-23.8971 L 93.3257,-24.5764 L 92.7652,-25.3806 L 92.3724,-26.2786
 L 92.1623,-27.236 L 92.1431,-28.216 L 92.3154,-29.1809 L 92.6727,-30.0936 L 93.2011,-30.9191 L 93.8805,-31.6257
 L 94.6846,-32.1862 L 95.5826,-32.5789 L 96.54,-32.789 L 97.52,-32.8083 L 98.4849,-32.6359 L 99.3977,-32.2787
 L 100.223,-31.7503 L 100.93,-31.0709 L 101.49,-30.2668 L 101.883,-29.3688 L 102.093,-28.4114 L 102.112,-27.4314
 L 101.94,-26.4665 L 101.583,-25.5537 L 101.054,-24.7282 L 100.375,-24.0216 L 99.5708,-23.4612 L 98.6728,-23.0684
 L 97.7154,-22.8583 L 96.7354,-22.8391 z
" stroke="black" fill="lightgray" stroke-width="0.5"/></svg>
