  0
SECTION
  2
BLOCKS
  0
ENDSEC
  0
SECTION
  2
ENTITIES
  0
LINE
  8
0
 10
85.3167
 20
1.64218
 11
86.3492
 21
2.26073
  0
LINE
  8
0
 10
86.3492
 20
2.26073
 11
86.7076
 21
2.41228
  0
LINE
  8
0
 10
86.7076
 20
2.41228
 11
86.7836
 21
3.2173
  0
LINE
  8
0
 10
86.7836
 20
3.2173
 11
87.0371
 21
4.13651
  0
LINE
  8
0
 10
87.0371
 20
4.13651
 11
87.4444
 21
4.98155
  0
LINE
  8
0
 10
87.4444
 20
4.98155
 11
87.9907
 21
5.72188
  0
LINE
  8
0
 10
87.9907
 20
5.72188
 11
88.6563
 21
6.33073
  0
LINE
  8
0
 10
88.6563
 20
6.33073
 11
89.417
 21
6.7861
  0
LINE
  8
0
 10
89.417
 20
6.7861
 11
90.2455
 21
7.07155
  0
LINE
  8
0
 10
90.2455
 20
7.07155
 11
91.1118
 21
7.17673
  0
LINE
  8
0
 10
91.1118
 20
7.17673
 11
91.9845
 21
7.09785
  0
LINE
  8
0
 10
91.9845
 20
7.09785
 11
92.8321
 21
6.83777
  0
LINE
  8
0
 10
92.8321
 20
6.83777
 11
93.624
 21
6.40588
  0
LINE
  8
0
 10
93.624
 20
6.40588
 11
94.3316
 21
5.81781
  0
LINE
  8
0
 10
94.3316
 20
5.81781
 11
94.9293
 21
5.09479
  0
LINE
  8
0
 10
94.9293
 20
5.09479
 11
95.3954
 21
4.26295
  0
LINE
  8
0
 10
95.3954
 20
4.26295
 11
95.6619
 21
3.49953
  0
LINE
  8
0
 10
95.6619
 20
3.49953
 11
96.0461
 21
3.43814
  0
LINE
  8
0
 10
96.0461
 20
3.43814
 11
97.1174
 21
3.10904
  0
LINE
  8
0
 10
97.1174
 20
3.10904
 11
98.2431
 21
3.38971
  0
LINE
  8
0
 10
98.2431
 20
3.38971
 11
99.0202
 21
4.0453
  0
LINE
  8
0
 10
99.0202
 20
4.0453
 11
99.3496
 21
4.25237
  0
LINE
  8
0
 10
99.3496
 20
4.25237
 11
99.2954
 21
5.05916
  0
LINE
  8
0
 10
99.2954
 20
5.05916
 11
99.3983
 21
6.00714
  0
LINE
  8
0
 10
99.3983
 20
6.00714
 11
99.6647
 21
6.90657
  0
LINE
  8
0
 10
99.6647
 20
6.90657
 11
100.085
 21
7.72495
  0
LINE
  8
0
 10
100.085
 20
7.72495
 11
100.644
 21
8.43266
  0
LINE
  8
0
 10
100.644
 20
8.43266
 11
101.322
 21
9.00418
  0
LINE
  8
0
 10
101.322
 20
9.00418
 11
102.094
 21
9.41882
  0
LINE
  8
0
 10
102.094
 20
9.41882
 11
102.932
 21
9.66159
  0
LINE
  8
0
 10
102.932
 20
9.66159
 11
103.806
 21
9.72374
  0
LINE
  8
0
 10
103.806
 20
9.72374
 11
104.685
 21
9.603
  0
LINE
  8
0
 10
104.685
 20
9.603
 11
105.536
 21
9.30374
  0
LINE
  8
0
 10
105.536
 20
9.30374
 11
106.329
 21
8.83678
  0
LINE
  8
0
 10
106.329
 20
8.83678
 11
107.034
 21
8.21899
  0
LINE
  8
0
 10
107.034
 20
8.21899
 11
107.628
 21
7.47272
  0
LINE
  8
0
 10
107.628
 20
7.47272
 11
108.014
 21
6.7619
  0
LINE
  8
0
 10
108.014
 20
6.7619
 11
108.403
 21
6.76295
  0
LINE
  8
0
 10
108.403
 20
6.76295
 11
109.38
 21
6.6283
  0
LINE
  8
0
 10
109.38
 20
6.6283
 11
110.638
 21
7.13676
  0
LINE
  8
0
 10
110.638
 20
7.13676
 11
111.241
 21
7.83931
  0
LINE
  8
0
 10
111.241
 20
7.83931
 11
111.533
 21
8.09654
  0
LINE
  8
0
 10
111.533
 20
8.09654
 11
111.35
 21
8.8842
  0
LINE
  8
0
 10
111.35
 20
8.8842
 11
111.299
 21
9.8364
  0
LINE
  8
0
 10
111.299
 20
9.8364
 11
111.418
 21
10.7669
  0
LINE
  8
0
 10
111.418
 20
10.7669
 11
111.702
 21
11.6422
  0
LINE
  8
0
 10
111.702
 20
11.6422
 11
112.14
 21
12.4304
  0
LINE
  8
0
 10
112.14
 20
12.4304
 11
112.718
 21
13.1033
  0
LINE
  8
0
 10
112.718
 20
13.1033
 11
113.413
 21
13.6364
  0
LINE
  8
0
 10
113.413
 20
13.6364
 11
114.201
 21
14.0105
  0
LINE
  8
0
 10
114.201
 20
14.0105
 11
115.054
 21
14.212
  0
LINE
  8
0
 10
115.054
 20
14.212
 11
115.941
 21
14.2337
  0
LINE
  8
0
 10
115.941
 20
14.2337
 11
116.828
 21
14.0748
  0
LINE
  8
0
 10
116.828
 20
14.0748
 11
117.686
 21
13.7411
  0
LINE
  8
0
 10
117.686
 20
13.7411
 11
118.482
 21
13.2446
  0
LINE
  8
0
 10
118.482
 20
13.2446
 11
119.187
 21
12.6031
  0
LINE
  8
0
 10
119.187
 20
12.6031
 11
119.682
 21
11.9634
  0
LINE
  8
0
 10
119.682
 20
11.9634
 11
120.066
 21
12.0268
  0
LINE
  8
0
 10
120.066
 20
12.0268
 11
120.984
 21
12.049
  0
LINE
  8
0
 10
120.984
 20
12.049
 11
122.216
 21
12.7603
  0
LINE
  8
0
 10
122.216
 20
12.7603
 11
122.694
 21
13.5445
  0
LINE
  8
0
 10
122.694
 20
13.5445
 11
122.941
 21
13.8452
  0
LINE
  8
0
 10
122.941
 20
13.8452
 11
122.635
 21
14.5934
  0
LINE
  8
0
 10
122.635
 20
14.5934
 11
122.432
 21
15.5251
  0
LINE
  8
0
 10
122.432
 20
15.5251
 11
122.4
 21
16.4626
  0
LINE
  8
0
 10
122.4
 20
16.4626
 11
122.539
 21
17.372
  0
LINE
  8
0
 10
122.539
 20
17.372
 11
122.846
 21
18.2205
  0
LINE
  8
0
 10
122.846
 20
18.2205
 11
123.308
 21
18.9772
  0
LINE
  8
0
 10
123.308
 20
18.9772
 11
123.909
 21
19.615
  0
LINE
  8
0
 10
123.909
 20
19.615
 11
124.627
 21
20.1107
  0
LINE
  8
0
 10
124.627
 20
20.1107
 11
125.436
 21
20.4464
  0
LINE
  8
0
 10
125.436
 20
20.4464
 11
126.308
 21
20.61
  0
LINE
  8
0
 10
126.308
 20
20.61
 11
127.21
 21
20.5956
  0
LINE
  8
0
 10
127.21
 20
20.5956
 11
128.109
 21
20.4038
  0
LINE
  8
0
 10
128.109
 20
20.4038
 11
128.975
 21
20.0413
  0
LINE
  8
0
 10
128.975
 20
20.0413
 11
129.774
 21
19.5214
  0
LINE
  8
0
 10
129.774
 20
19.5214
 11
130.365
 21
18.9692
  0
LINE
  8
0
 10
130.365
 20
18.9692
 11
130.733
 21
19.0934
  0
LINE
  8
0
 10
130.733
 20
19.0934
 11
131.643
 21
19.2639
  0
LINE
  8
0
 10
131.643
 20
19.2639
 11
132.713
 21
20.0996
  0
LINE
  8
0
 10
132.713
 20
20.0996
 11
133.085
 21
21.0132
  0
LINE
  8
0
 10
133.085
 20
21.0132
 11
133.28
 21
21.3496
  0
LINE
  8
0
 10
133.28
 20
21.3496
 11
132.857
 21
22.0388
  0
LINE
  8
0
 10
132.857
 20
22.0388
 11
132.508
 21
22.926
  0
LINE
  8
0
 10
132.508
 20
22.926
 11
132.326
 21
23.8462
  0
LINE
  8
0
 10
132.326
 20
23.8462
 11
132.318
 21
24.7662
  0
LINE
  8
0
 10
132.318
 20
24.7662
 11
132.484
 21
25.6528
  0
LINE
  8
0
 10
132.484
 20
25.6528
 11
132.819
 21
26.4739
  0
LINE
  8
0
 10
132.819
 20
26.4739
 11
133.309
 21
27.1998
  0
LINE
  8
0
 10
133.309
 20
27.1998
 11
133.939
 21
27.8042
  0
LINE
  8
0
 10
133.939
 20
27.8042
 11
134.684
 21
28.2655
  0
LINE
  8
0
 10
134.684
 20
28.2655
 11
135.518
 21
28.5668
  0
LINE
  8
0
 10
135.518
 20
28.5668
 11
136.41
 21
28.6972
  0
LINE
  8
0
 10
136.41
 20
28.6972
 11
137.329
 21
28.6522
  0
LINE
  8
0
 10
137.329
 20
28.6522
 11
138.241
 21
28.4332
  0
LINE
  8
0
 10
138.241
 20
28.4332
 11
139.114
 21
28.0483
  0
LINE
  8
0
 10
139.114
 20
28.0483
 11
139.785
 21
27.598
  0
LINE
  8
0
 10
139.785
 20
27.598
 11
140.129
 21
27.7797
  0
LINE
  8
0
 10
140.129
 20
27.7797
 11
141.086
 21
28.1249
  0
LINE
  8
0
 10
141.086
 20
28.1249
 11
141.892
 21
28.9595
  0
LINE
  8
0
 10
141.892
 20
28.9595
 11
142.142
 21
30.0518
  0
LINE
  8
0
 10
142.142
 20
30.0518
 11
142.281
 21
30.4152
  0
LINE
  8
0
 10
142.281
 20
30.4152
 11
141.753
 21
31.0277
  0
LINE
  8
0
 10
141.753
 20
31.0277
 11
141.266
 21
31.8473
  0
LINE
  8
0
 10
141.266
 20
31.8473
 11
140.939
 21
32.7264
  0
LINE
  8
0
 10
140.939
 20
32.7264
 11
140.783
 21
33.6332
  0
LINE
  8
0
 10
140.783
 20
33.6332
 11
140.805
 21
34.535
  0
LINE
  8
0
 10
140.805
 20
34.535
 11
141.004
 21
35.3991
  0
LINE
  8
0
 10
141.004
 20
35.3991
 11
141.372
 21
36.1943
  0
LINE
  8
0
 10
141.372
 20
36.1943
 11
141.896
 21
36.8919
  0
LINE
  8
0
 10
141.896
 20
36.8919
 11
142.557
 21
37.4667
  0
LINE
  8
0
 10
142.557
 20
37.4667
 11
143.332
 21
37.8979
  0
LINE
  8
0
 10
143.332
 20
37.8979
 11
144.192
 21
38.1698
  0
LINE
  8
0
 10
144.192
 20
38.1698
 11
145.106
 21
38.2728
  0
LINE
  8
0
 10
145.106
 20
38.2728
 11
146.042
 21
38.2029
  0
LINE
  8
0
 10
146.042
 20
38.2029
 11
146.965
 21
37.9629
  0
LINE
  8
0
 10
146.965
 20
37.9629
 11
147.7
 21
37.6262
  0
LINE
  8
0
 10
147.7
 20
37.6262
 11
148.01
 21
37.8608
  0
LINE
  8
0
 10
148.01
 20
37.8608
 11
149.062
 21
38.4458
  0
LINE
  8
0
 10
149.062
 20
38.4458
 11
149.548
 21
39.1142
  0
LINE
  8
0
 10
149.548
 20
39.1142
 11
149.633
 21
40.4263
  0
LINE
  8
0
 10
149.633
 20
40.4263
 11
149.712
 21
40.8073
  0
LINE
  8
0
 10
149.712
 20
40.8073
 11
149.092
 21
41.3271
  0
LINE
  8
0
 10
149.092
 20
41.3271
 11
148.48
 21
42.058
  0
LINE
  8
0
 10
148.48
 20
42.058
 11
148.016
 21
42.8732
  0
LINE
  8
0
 10
148.016
 20
42.8732
 11
147.717
 21
43.7433
  0
LINE
  8
0
 10
147.717
 20
43.7433
 11
147.594
 21
44.6369
  0
LINE
  8
0
 10
147.594
 20
44.6369
 11
147.651
 21
45.5217
  0
LINE
  8
0
 10
147.651
 20
45.5217
 11
147.887
 21
46.3657
  0
LINE
  8
0
 10
147.887
 20
46.3657
 11
148.292
 21
47.1384
  0
LINE
  8
0
 10
148.292
 20
47.1384
 11
148.853
 21
47.8118
  0
LINE
  8
0
 10
148.853
 20
47.8118
 11
149.549
 21
48.3616
  0
LINE
  8
0
 10
149.549
 20
48.3616
 11
150.354
 21
48.768
  0
LINE
  8
0
 10
150.354
 20
48.768
 11
151.24
 21
49.0163
  0
LINE
  8
0
 10
151.24
 20
49.0163
 11
152.174
 21
49.0975
  0
LINE
  8
0
 10
152.174
 20
49.0975
 11
153.124
 21
49.0086
  0
LINE
  8
0
 10
153.124
 20
49.0086
 11
153.903
 21
48.7942
  0
LINE
  8
0
 10
153.903
 20
48.7942
 11
154.172
 21
49.0755
  0
LINE
  8
0
 10
154.172
 20
49.0755
 11
155.122
 21
49.826
  0
LINE
  8
0
 10
155.122
 20
49.826
 11
155.468
 21
50.7757
  0
LINE
  8
0
 10
155.468
 20
50.7757
 11
155.362
 21
51.868
  0
LINE
  8
0
 10
155.362
 20
51.868
 11
155.379
 21
52.2567
  0
LINE
  8
0
 10
155.379
 20
52.2567
 11
154.684
 21
52.6705
  0
LINE
  8
0
 10
154.684
 20
52.6705
 11
153.962
 21
53.2936
  0
LINE
  8
0
 10
153.962
 20
53.2936
 11
153.373
 21
54.0238
  0
LINE
  8
0
 10
153.373
 20
54.0238
 11
152.939
 21
54.8347
  0
LINE
  8
0
 10
152.939
 20
54.8347
 11
152.674
 21
55.6971
  0
LINE
  8
0
 10
152.674
 20
55.6971
 11
152.589
 21
56.5796
  0
LINE
  8
0
 10
152.589
 20
56.5796
 11
152.686
 21
57.4504
  0
LINE
  8
0
 10
152.686
 20
57.4504
 11
152.962
 21
58.2781
  0
LINE
  8
0
 10
152.962
 20
58.2781
 11
153.408
 21
59.0328
  0
LINE
  8
0
 10
153.408
 20
59.0328
 11
154.006
 21
59.6871
  0
LINE
  8
0
 10
154.006
 20
59.6871
 11
154.736
 21
60.2174
  0
LINE
  8
0
 10
154.736
 20
60.2174
 11
155.57
 21
60.6046
  0
LINE
  8
0
 10
155.57
 20
60.6046
 11
156.48
 21
60.8346
  0
LINE
  8
0
 10
156.48
 20
60.8346
 11
157.431
 21
60.8991
  0
LINE
  8
0
 10
157.431
 20
60.8991
 11
158.235
 21
60.8126
  0
LINE
  8
0
 10
158.235
 20
60.8126
 11
158.455
 21
61.1334
  0
LINE
  8
0
 10
158.455
 20
61.1334
 11
159.161
 21
61.9048
  0
LINE
  8
0
 10
159.161
 20
61.9048
 11
159.426
 21
63.1524
  0
LINE
  8
0
 10
159.426
 20
63.1524
 11
159.182
 21
64.0806
  0
LINE
  8
0
 10
159.182
 20
64.0806
 11
159.136
 21
64.4669
  0
LINE
  8
0
 10
159.136
 20
64.4669
 11
158.384
 21
64.7639
  0
LINE
  8
0
 10
158.384
 20
64.7639
 11
157.571
 21
65.2632
  0
LINE
  8
0
 10
157.571
 20
65.2632
 11
156.873
 21
65.8895
  0
LINE
  8
0
 10
156.873
 20
65.8895
 11
156.314
 21
66.6202
  0
LINE
  8
0
 10
156.314
 20
66.6202
 11
155.914
 21
67.4289
  0
LINE
  8
0
 10
155.914
 20
67.4289
 11
155.688
 21
68.2863
  0
LINE
  8
0
 10
155.688
 20
68.2863
 11
155.645
 21
69.1615
  0
LINE
  8
0
 10
155.645
 20
69.1615
 11
155.785
 21
70.0228
  0
LINE
  8
0
 10
155.785
 20
70.0228
 11
156.103
 21
70.8391
  0
LINE
  8
0
 10
156.103
 20
70.8391
 11
156.589
 21
71.5809
  0
LINE
  8
0
 10
156.589
 20
71.5809
 11
157.224
 21
72.2214
  0
LINE
  8
0
 10
157.224
 20
72.2214
 11
157.986
 21
72.7374
  0
LINE
  8
0
 10
157.986
 20
72.7374
 11
158.847
 21
73.1104
  0
LINE
  8
0
 10
158.847
 20
73.1104
 11
159.775
 21
73.3267
  0
LINE
  8
0
 10
159.775
 20
73.3267
 11
160.583
 21
73.3702
  0
LINE
  8
0
 10
160.583
 20
73.3702
 11
160.748
 21
73.7222
  0
LINE
  8
0
 10
160.748
 20
73.7222
 11
161.266
 21
74.5116
  0
LINE
  8
0
 10
161.266
 20
74.5116
 11
161.364
 21
75.9144
  0
LINE
  8
0
 10
161.364
 20
75.9144
 11
160.993
 21
76.7477
  0
LINE
  8
0
 10
160.993
 20
76.7477
 11
160.885
 21
77.1217
  0
LINE
  8
0
 10
160.885
 20
77.1217
 11
160.095
 21
77.2942
  0
LINE
  8
0
 10
160.095
 20
77.2942
 11
159.214
 21
77.6567
  0
LINE
  8
0
 10
159.214
 20
77.6567
 11
158.424
 21
78.1629
  0
LINE
  8
0
 10
158.424
 20
78.1629
 11
157.755
 21
78.7944
  0
LINE
  8
0
 10
157.755
 20
78.7944
 11
157.23
 21
79.5285
  0
LINE
  8
0
 10
157.23
 20
79.5285
 11
156.87
 21
80.3386
  0
LINE
  8
0
 10
156.87
 20
80.3386
 11
156.687
 21
81.1955
  0
LINE
  8
0
 10
156.687
 20
81.1955
 11
156.687
 21
82.0681
  0
LINE
  8
0
 10
156.687
 20
82.0681
 11
156.87
 21
82.9249
  0
LINE
  8
0
 10
156.87
 20
82.9249
 11
157.23
 21
83.735
  0
LINE
  8
0
 10
157.23
 20
83.735
 11
157.755
 21
84.4691
  0
LINE
  8
0
 10
157.755
 20
84.4691
 11
158.424
 21
85.1007
  0
LINE
  8
0
 10
158.424
 20
85.1007
 11
159.214
 21
85.6068
  0
LINE
  8
0
 10
159.214
 20
85.6068
 11
160.095
 21
85.9693
  0
LINE
  8
0
 10
160.095
 20
85.9693
 11
160.885
 21
86.1418
  0
LINE
  8
0
 10
160.885
 20
86.1418
 11
160.993
 21
86.5158
  0
LINE
  8
0
 10
160.993
 20
86.5158
 11
161.364
 21
87.3491
  0
LINE
  8
0
 10
161.364
 20
87.3491
 11
161.266
 21
88.752
  0
LINE
  8
0
 10
161.266
 20
88.752
 11
160.748
 21
89.5414
  0
LINE
  8
0
 10
160.748
 20
89.5414
 11
160.583
 21
89.8933
  0
LINE
  8
0
 10
160.583
 20
89.8933
 11
159.775
 21
89.9368
  0
LINE
  8
0
 10
159.775
 20
89.9368
 11
158.847
 21
90.1532
  0
LINE
  8
0
 10
158.847
 20
90.1532
 11
157.986
 21
90.5261
  0
LINE
  8
0
 10
157.986
 20
90.5261
 11
157.224
 21
91.0421
  0
LINE
  8
0
 10
157.224
 20
91.0421
 11
156.589
 21
91.6826
  0
LINE
  8
0
 10
156.589
 20
91.6826
 11
156.103
 21
92.4244
  0
LINE
  8
0
 10
156.103
 20
92.4244
 11
155.785
 21
93.2408
  0
LINE
  8
0
 10
155.785
 20
93.2408
 11
155.645
 21
94.1021
  0
LINE
  8
0
 10
155.645
 20
94.1021
 11
155.688
 21
94.9772
  0
LINE
  8
0
 10
155.688
 20
94.9772
 11
155.914
 21
95.8347
  0
LINE
  8
0
 10
155.914
 20
95.8347
 11
156.314
 21
96.6433
  0
LINE
  8
0
 10
156.314
 20
96.6433
 11
156.873
 21
97.374
  0
LINE
  8
0
 10
156.873
 20
97.374
 11
157.571
 21
98.0003
  0
LINE
  8
0
 10
157.571
 20
98.0003
 11
158.384
 21
98.4996
  0
LINE
  8
0
 10
158.384
 20
98.4996
 11
159.136
 21
98.7966
  0
LINE
  8
0
 10
159.136
 20
98.7966
 11
159.182
 21
99.183
  0
LINE
  8
0
 10
159.182
 20
99.183
 11
159.426
 21
100.111
  0
LINE
  8
0
 10
159.426
 20
100.111
 11
159.161
 21
101.359
  0
LINE
  8
0
 10
159.161
 20
101.359
 11
158.455
 21
102.13
  0
LINE
  8
0
 10
158.455
 20
102.13
 11
158.235
 21
102.451
  0
LINE
  8
0
 10
158.235
 20
102.451
 11
157.431
 21
102.364
  0
LINE
  8
0
 10
157.431
 20
102.364
 11
156.48
 21
102.429
  0
LINE
  8
0
 10
156.48
 20
102.429
 11
155.57
 21
102.659
  0
LINE
  8
0
 10
155.57
 20
102.659
 11
154.736
 21
103.046
  0
LINE
  8
0
 10
154.736
 20
103.046
 11
154.006
 21
103.576
  0
LINE
  8
0
 10
154.006
 20
103.576
 11
153.408
 21
104.231
  0
LINE
  8
0
 10
153.408
 20
104.231
 11
152.962
 21
104.985
  0
LINE
  8
0
 10
152.962
 20
104.985
 11
152.686
 21
105.813
  0
LINE
  8
0
 10
152.686
 20
105.813
 11
152.589
 21
106.684
  0
LINE
  8
0
 10
152.589
 20
106.684
 11
152.674
 21
107.566
  0
LINE
  8
0
 10
152.674
 20
107.566
 11
152.939
 21
108.429
  0
LINE
  8
0
 10
152.939
 20
108.429
 11
153.373
 21
109.24
  0
LINE
  8
0
 10
153.373
 20
109.24
 11
153.962
 21
109.97
  0
LINE
  8
0
 10
153.962
 20
109.97
 11
154.684
 21
110.593
  0
LINE
  8
0
 10
154.684
 20
110.593
 11
155.379
 21
111.007
  0
LINE
  8
0
 10
155.379
 20
111.007
 11
155.362
 21
111.396
  0
LINE
  8
0
 10
155.362
 20
111.396
 11
155.468
 21
112.488
  0
LINE
  8
0
 10
155.468
 20
112.488
 11
155.122
 21
113.438
  0
LINE
  8
0
 10
155.122
 20
113.438
 11
154.172
 21
114.188
  0
LINE
  8
0
 10
154.172
 20
114.188
 11
153.903
 21
114.469
  0
LINE
  8
0
 10
153.903
 20
114.469
 11
153.124
 21
114.255
  0
LINE
  8
0
 10
153.124
 20
114.255
 11
152.174
 21
114.166
  0
LINE
  8
0
 10
152.174
 20
114.166
 11
151.24
 21
114.247
  0
LINE
  8
0
 10
151.24
 20
114.247
 11
150.354
 21
114.495
  0
LINE
  8
0
 10
150.354
 20
114.495
 11
149.549
 21
114.902
  0
LINE
  8
0
 10
149.549
 20
114.902
 11
148.853
 21
115.452
  0
LINE
  8
0
 10
148.853
 20
115.452
 11
148.292
 21
116.125
  0
LINE
  8
0
 10
148.292
 20
116.125
 11
147.887
 21
116.898
  0
LINE
  8
0
 10
147.887
 20
116.898
 11
147.651
 21
117.742
  0
LINE
  8
0
 10
147.651
 20
117.742
 11
147.594
 21
118.627
  0
LINE
  8
0
 10
147.594
 20
118.627
 11
147.717
 21
119.52
  0
LINE
  8
0
 10
147.717
 20
119.52
 11
148.016
 21
120.39
  0
LINE
  8
0
 10
148.016
 20
120.39
 11
148.48
 21
121.206
  0
LINE
  8
0
 10
148.48
 20
121.206
 11
149.092
 21
121.936
  0
LINE
  8
0
 10
149.092
 20
121.936
 11
149.712
 21
122.456
  0
LINE
  8
0
 10
149.712
 20
122.456
 11
149.633
 21
122.837
  0
LINE
  8
0
 10
149.633
 20
122.837
 11
149.548
 21
124.149
  0
LINE
  8
0
 10
149.548
 20
124.149
 11
149.062
 21
124.818
  0
LINE
  8
0
 10
149.062
 20
124.818
 11
148.01
 21
125.403
  0
LINE
  8
0
 10
148.01
 20
125.403
 11
147.7
 21
125.637
  0
LINE
  8
0
 10
147.7
 20
125.637
 11
146.965
 21
125.301
  0
LINE
  8
0
 10
146.965
 20
125.301
 11
146.042
 21
125.061
  0
LINE
  8
0
 10
146.042
 20
125.061
 11
145.106
 21
124.991
  0
LINE
  8
0
 10
145.106
 20
124.991
 11
144.192
 21
125.094
  0
LINE
  8
0
 10
144.192
 20
125.094
 11
143.332
 21
125.366
  0
LINE
  8
0
 10
143.332
 20
125.366
 11
142.557
 21
125.797
  0
LINE
  8
0
 10
142.557
 20
125.797
 11
141.896
 21
126.372
  0
LINE
  8
0
 10
141.896
 20
126.372
 11
141.372
 21
127.069
  0
LINE
  8
0
 10
141.372
 20
127.069
 11
141.004
 21
127.864
  0
LINE
  8
0
 10
141.004
 20
127.864
 11
140.805
 21
128.729
  0
LINE
  8
0
 10
140.805
 20
128.729
 11
140.783
 21
129.63
  0
LINE
  8
0
 10
140.783
 20
129.63
 11
140.939
 21
130.537
  0
LINE
  8
0
 10
140.939
 20
130.537
 11
141.266
 21
131.416
  0
LINE
  8
0
 10
141.266
 20
131.416
 11
141.753
 21
132.236
  0
LINE
  8
0
 10
141.753
 20
132.236
 11
142.281
 21
132.848
  0
LINE
  8
0
 10
142.281
 20
132.848
 11
142.142
 21
133.212
  0
LINE
  8
0
 10
142.142
 20
133.212
 11
141.892
 21
134.304
  0
LINE
  8
0
 10
141.892
 20
134.304
 11
141.086
 21
135.139
  0
LINE
  8
0
 10
141.086
 20
135.139
 11
140.129
 21
135.484
  0
LINE
  8
0
 10
140.129
 20
135.484
 11
139.785
 21
135.666
  0
LINE
  8
0
 10
139.785
 20
135.666
 11
139.114
 21
135.215
  0
LINE
  8
0
 10
139.114
 20
135.215
 11
138.241
 21
134.83
  0
LINE
  8
0
 10
138.241
 20
134.83
 11
137.329
 21
134.611
  0
LINE
  8
0
 10
137.329
 20
134.611
 11
136.41
 21
134.566
  0
LINE
  8
0
 10
136.41
 20
134.566
 11
135.518
 21
134.697
  0
LINE
  8
0
 10
135.518
 20
134.697
 11
134.684
 21
134.998
  0
LINE
  8
0
 10
134.684
 20
134.998
 11
133.939
 21
135.459
  0
LINE
  8
0
 10
133.939
 20
135.459
 11
133.309
 21
136.064
  0
LINE
  8
0
 10
133.309
 20
136.064
 11
132.819
 21
136.79
  0
LINE
  8
0
 10
132.819
 20
136.79
 11
132.484
 21
137.611
  0
LINE
  8
0
 10
132.484
 20
137.611
 11
132.318
 21
138.497
  0
LINE
  8
0
 10
132.318
 20
138.497
 11
132.326
 21
139.417
  0
LINE
  8
0
 10
132.326
 20
139.417
 11
132.508
 21
140.338
  0
LINE
  8
0
 10
132.508
 20
140.338
 11
132.857
 21
141.225
  0
LINE
  8
0
 10
132.857
 20
141.225
 11
133.28
 21
141.914
  0
LINE
  8
0
 10
133.28
 20
141.914
 11
133.085
 21
142.25
  0
LINE
  8
0
 10
133.085
 20
142.25
 11
132.713
 21
143.164
  0
LINE
  8
0
 10
132.713
 20
143.164
 11
131.643
 21
144
  0
LINE
  8
0
 10
131.643
 20
144
 11
130.733
 21
144.17
  0
LINE
  8
0
 10
130.733
 20
144.17
 11
130.365
 21
144.294
  0
LINE
  8
0
 10
130.365
 20
144.294
 11
129.774
 21
143.742
  0
LINE
  8
0
 10
129.774
 20
143.742
 11
128.975
 21
143.222
  0
LINE
  8
0
 10
128.975
 20
143.222
 11
128.109
 21
142.86
  0
LINE
  8
0
 10
128.109
 20
142.86
 11
127.21
 21
142.668
  0
LINE
  8
0
 10
127.21
 20
142.668
 11
126.308
 21
142.654
  0
LINE
  8
0
 10
126.308
 20
142.654
 11
125.436
 21
142.817
  0
LINE
  8
0
 10
125.436
 20
142.817
 11
124.627
 21
143.153
  0
LINE
  8
0
 10
124.627
 20
143.153
 11
123.909
 21
143.649
  0
LINE
  8
0
 10
123.909
 20
143.649
 11
123.308
 21
144.286
  0
LINE
  8
0
 10
123.308
 20
144.286
 11
122.846
 21
145.043
  0
LINE
  8
0
 10
122.846
 20
145.043
 11
122.539
 21
145.891
  0
LINE
  8
0
 10
122.539
 20
145.891
 11
122.4
 21
146.801
  0
LINE
  8
0
 10
122.4
 20
146.801
 11
122.432
 21
147.738
  0
LINE
  8
0
 10
122.432
 20
147.738
 11
122.635
 21
148.67
  0
LINE
  8
0
 10
122.635
 20
148.67
 11
122.941
 21
149.418
  0
LINE
  8
0
 10
122.941
 20
149.418
 11
122.694
 21
149.719
  0
LINE
  8
0
 10
122.694
 20
149.719
 11
122.216
 21
150.503
  0
LINE
  8
0
 10
122.216
 20
150.503
 11
120.984
 21
151.215
  0
LINE
  8
0
 10
120.984
 20
151.215
 11
120.066
 21
151.237
  0
LINE
  8
0
 10
120.066
 20
151.237
 11
119.682
 21
151.3
  0
LINE
  8
0
 10
119.682
 20
151.3
 11
119.187
 21
150.66
  0
LINE
  8
0
 10
119.187
 20
150.66
 11
118.482
 21
150.019
  0
LINE
  8
0
 10
118.482
 20
150.019
 11
117.686
 21
149.522
  0
LINE
  8
0
 10
117.686
 20
149.522
 11
116.828
 21
149.189
  0
LINE
  8
0
 10
116.828
 20
149.189
 11
115.941
 21
149.03
  0
LINE
  8
0
 10
115.941
 20
149.03
 11
115.054
 21
149.052
  0
LINE
  8
0
 10
115.054
 20
149.052
 11
114.201
 21
149.253
  0
LINE
  8
0
 10
114.201
 20
149.253
 11
113.413
 21
149.627
  0
LINE
  8
0
 10
113.413
 20
149.627
 11
112.718
 21
150.16
  0
LINE
  8
0
 10
112.718
 20
150.16
 11
112.14
 21
150.833
  0
LINE
  8
0
 10
112.14
 20
150.833
 11
111.702
 21
151.621
  0
LINE
  8
0
 10
111.702
 20
151.621
 11
111.418
 21
152.497
  0
LINE
  8
0
 10
111.418
 20
152.497
 11
111.299
 21
153.427
  0
LINE
  8
0
 10
111.299
 20
153.427
 11
111.35
 21
154.379
  0
LINE
  8
0
 10
111.35
 20
154.379
 11
111.533
 21
155.167
  0
LINE
  8
0
 10
111.533
 20
155.167
 11
111.241
 21
155.424
  0
LINE
  8
0
 10
111.241
 20
155.424
 11
110.638
 21
156.127
  0
LINE
  8
0
 10
110.638
 20
156.127
 11
109.38
 21
156.635
  0
LINE
  8
0
 10
109.38
 20
156.635
 11
108.403
 21
156.501
  0
LINE
  8
0
 10
108.403
 20
156.501
 11
108.014
 21
156.502
  0
LINE
  8
0
 10
108.014
 20
156.502
 11
107.628
 21
155.791
  0
LINE
  8
0
 10
107.628
 20
155.791
 11
107.034
 21
155.045
  0
LINE
  8
0
 10
107.034
 20
155.045
 11
106.329
 21
154.427
  0
LINE
  8
0
 10
106.329
 20
154.427
 11
105.536
 21
153.96
  0
LINE
  8
0
 10
105.536
 20
153.96
 11
104.685
 21
153.661
  0
LINE
  8
0
 10
104.685
 20
153.661
 11
103.806
 21
153.54
  0
LINE
  8
0
 10
103.806
 20
153.54
 11
102.932
 21
153.602
  0
LINE
  8
0
 10
102.932
 20
153.602
 11
102.094
 21
153.845
  0
LINE
  8
0
 10
102.094
 20
153.845
 11
101.322
 21
154.259
  0
LINE
  8
0
 10
101.322
 20
154.259
 11
100.644
 21
154.831
  0
LINE
  8
0
 10
100.644
 20
154.831
 11
100.085
 21
155.539
  0
LINE
  8
0
 10
100.085
 20
155.539
 11
99.6647
 21
156.357
  0
LINE
  8
0
 10
99.6647
 20
156.357
 11
99.3983
 21
157.256
  0
LINE
  8
0
 10
99.3983
 20
157.256
 11
99.2954
 21
158.204
  0
LINE
  8
0
 10
99.2954
 20
158.204
 11
99.3496
 21
159.011
  0
LINE
  8
0
 10
99.3496
 20
159.011
 11
99.0202
 21
159.218
  0
LINE
  8
0
 10
99.0202
 20
159.218
 11
98.2431
 21
159.874
  0
LINE
  8
0
 10
98.2431
 20
159.874
 11
97.1174
 21
160.154
  0
LINE
  8
0
 10
97.1174
 20
160.154
 11
96.0461
 21
159.825
  0
LINE
  8
0
 10
96.0461
 20
159.825
 11
95.6619
 21
159.764
  0
LINE
  8
0
 10
95.6619
 20
159.764
 11
95.3954
 21
159.001
  0
LINE
  8
0
 10
95.3954
 20
159.001
 11
94.9293
 21
158.169
  0
LINE
  8
0
 10
94.9293
 20
158.169
 11
94.3316
 21
157.446
  0
LINE
  8
0
 10
94.3316
 20
157.446
 11
93.624
 21
156.858
  0
LINE
  8
0
 10
93.624
 20
156.858
 11
92.8321
 21
156.426
  0
LINE
  8
0
 10
92.8321
 20
156.426
 11
91.9845
 21
156.166
  0
LINE
  8
0
 10
91.9845
 20
156.166
 11
91.1118
 21
156.087
  0
LINE
  8
0
 10
91.1118
 20
156.087
 11
90.2455
 21
156.192
  0
LINE
  8
0
 10
90.2455
 20
156.192
 11
89.417
 21
156.477
  0
LINE
  8
0
 10
89.417
 20
156.477
 11
88.6563
 21
156.933
  0
LINE
  8
0
 10
88.6563
 20
156.933
 11
87.9907
 21
157.542
  0
LINE
  8
0
 10
87.9907
 20
157.542
 11
87.4444
 21
158.282
  0
LINE
  8
0
 10
87.4444
 20
158.282
 11
87.0371
 21
159.127
  0
LINE
  8
0
 10
87.0371
 20
159.127
 11
86.7836
 21
160.046
  0
LINE
  8
0
 10
86.7836
 20
160.046
 11
86.7076
 21
160.851
  0
LINE
  8
0
 10
86.7076
 20
160.851
 11
86.3492
 21
161.003
  0
LINE
  8
0
 10
86.3492
 20
161.003
 11
85.3167
 21
161.621
  0
LINE
  8
0
 10
85.3167
 20
161.621
 11
84.4949
 21
161.708
  0
LINE
  8
0
 10
84.4949
 20
161.708
 11
83.3163
 21
161.125
  0
LINE
  8
0
 10
83.3163
 20
161.125
 11
82.9469
 21
161.003
  0
LINE
  8
0
 10
82.9469
 20
161.003
 11
82.8064
 21
160.207
  0
LINE
  8
0
 10
82.8064
 20
160.207
 11
82.4797
 21
159.311
  0
LINE
  8
0
 10
82.4797
 20
159.311
 11
82.0057
 21
158.501
  0
LINE
  8
0
 10
82.0057
 20
158.501
 11
81.4017
 21
157.807
  0
LINE
  8
0
 10
81.4017
 20
157.807
 11
80.6893
 21
157.254
  0
LINE
  8
0
 10
80.6893
 20
157.254
 11
79.8943
 21
156.861
  0
LINE
  8
0
 10
79.8943
 20
156.861
 11
79.0456
 21
156.643
  0
LINE
  8
0
 10
79.0456
 20
156.643
 11
78.1737
 21
156.608
  0
LINE
  8
0
 10
78.1737
 20
156.608
 11
77.3101
 21
156.757
  0
LINE
  8
0
 10
77.3101
 20
156.757
 11
76.4862
 21
157.084
  0
LINE
  8
0
 10
76.4862
 20
157.084
 11
75.7316
 21
157.579
  0
LINE
  8
0
 10
75.7316
 20
157.579
 11
75.0736
 21
158.222
  0
LINE
  8
0
 10
75.0736
 20
158.222
 11
74.536
 21
158.991
  0
LINE
  8
0
 10
74.536
 20
158.991
 11
74.1383
 21
159.857
  0
LINE
  8
0
 10
74.1383
 20
159.857
 11
73.9342
 21
160.64
  0
LINE
  8
0
 10
73.9342
 20
160.64
 11
73.5561
 21
160.732
  0
LINE
  8
0
 10
73.5561
 20
160.732
 11
72.4312
 21
161.179
  0
LINE
  8
0
 10
72.4312
 20
161.179
 11
71.4358
 21
161.004
  0
LINE
  8
0
 10
71.4358
 20
161.004
 11
70.5429
 21
160.366
  0
LINE
  8
0
 10
70.5429
 20
160.366
 11
70.1979
 21
160.186
  0
LINE
  8
0
 10
70.1979
 20
160.186
 11
70.1869
 21
159.377
  0
LINE
  8
0
 10
70.1869
 20
159.377
 11
70.0081
 21
158.441
  0
LINE
  8
0
 10
70.0081
 20
158.441
 11
69.6702
 21
157.566
  0
LINE
  8
0
 10
69.6702
 20
157.566
 11
69.1852
 21
156.784
  0
LINE
  8
0
 10
69.1852
 20
156.784
 11
68.5708
 21
156.123
  0
LINE
  8
0
 10
68.5708
 20
156.123
 11
67.8492
 21
155.608
  0
LINE
  8
0
 10
67.8492
 20
155.608
 11
67.0464
 21
155.257
  0
LINE
  8
0
 10
67.0464
 20
155.257
 11
66.1914
 21
155.083
  0
LINE
  8
0
 10
66.1914
 20
155.083
 11
65.3151
 21
155.091
  0
LINE
  8
0
 10
65.3151
 20
155.091
 11
64.4493
 21
155.282
  0
LINE
  8
0
 10
64.4493
 20
155.282
 11
63.6252
 21
155.649
  0
LINE
  8
0
 10
63.6252
 20
155.649
 11
62.8726
 21
156.178
  0
LINE
  8
0
 10
62.8726
 20
156.178
 11
62.2187
 21
156.851
  0
LINE
  8
0
 10
62.2187
 20
156.851
 11
61.6871
 21
157.642
  0
LINE
  8
0
 10
61.6871
 20
157.642
 11
61.3601
 21
158.382
  0
LINE
  8
0
 10
61.3601
 20
158.382
 11
60.9722
 21
158.412
  0
LINE
  8
0
 10
60.9722
 20
158.412
 11
59.9512
 21
158.638
  0
LINE
  8
0
 10
59.9512
 20
158.638
 11
58.7381
 21
158.243
  0
LINE
  8
0
 10
58.7381
 20
158.243
 11
58.0566
 21
157.567
  0
LINE
  8
0
 10
58.0566
 20
157.567
 11
57.745
 21
157.335
  0
LINE
  8
0
 10
57.745
 20
157.335
 11
57.8638
 21
156.535
  0
LINE
  8
0
 10
57.8638
 20
156.535
 11
57.8376
 21
155.582
  0
LINE
  8
0
 10
57.8376
 20
155.582
 11
57.6444
 21
154.664
  0
LINE
  8
0
 10
57.6444
 20
154.664
 11
57.2912
 21
153.814
  0
LINE
  8
0
 10
57.2912
 20
153.814
 11
56.7907
 21
153.064
  0
LINE
  8
0
 10
56.7907
 20
153.064
 11
56.161
 21
152.439
  0
LINE
  8
0
 10
56.161
 20
152.439
 11
55.4249
 21
151.964
  0
LINE
  8
0
 10
55.4249
 20
151.964
 11
54.609
 21
151.655
  0
LINE
  8
0
 10
54.609
 20
151.655
 11
53.7428
 21
151.522
  0
LINE
  8
0
 10
53.7428
 20
151.522
 11
52.8575
 21
151.572
  0
LINE
  8
0
 10
52.8575
 20
151.572
 11
51.9852
 21
151.802
  0
LINE
  8
0
 10
51.9852
 20
151.802
 11
51.1575
 21
152.203
  0
LINE
  8
0
 10
51.1575
 20
152.203
 11
50.4041
 21
152.762
  0
LINE
  8
0
 10
50.4041
 20
152.762
 11
49.7525
 21
153.459
  0
LINE
  8
0
 10
49.7525
 20
153.459
 11
49.3111
 21
154.136
  0
LINE
  8
0
 10
49.3111
 20
154.136
 11
48.9233
 21
154.104
  0
LINE
  8
0
 10
48.9233
 20
154.104
 11
47.9811
 21
154.157
  0
LINE
  8
0
 10
47.9811
 20
154.157
 11
46.7171
 21
153.54
  0
LINE
  8
0
 10
46.7171
 20
153.54
 11
46.181
 21
152.802
  0
LINE
  8
0
 10
46.181
 20
152.802
 11
45.9107
 21
152.523
  0
LINE
  8
0
 10
45.9107
 20
152.523
 11
46.1563
 21
151.752
  0
LINE
  8
0
 10
46.1563
 20
151.752
 11
46.2834
 21
150.807
  0
LINE
  8
0
 10
46.2834
 20
150.807
 11
46.2399
 21
149.87
  0
LINE
  8
0
 10
46.2399
 20
149.87
 11
46.0275
 21
148.975
  0
LINE
  8
0
 10
46.0275
 20
148.975
 11
45.6539
 21
148.154
  0
LINE
  8
0
 10
45.6539
 20
148.154
 11
45.1325
 21
147.437
  0
LINE
  8
0
 10
45.1325
 20
147.437
 11
44.4822
 21
146.849
  0
LINE
  8
0
 10
44.4822
 20
146.849
 11
43.7265
 21
146.413
  0
LINE
  8
0
 10
43.7265
 20
146.413
 11
42.8927
 21
146.144
  0
LINE
  8
0
 10
42.8927
 20
146.144
 11
42.0109
 21
146.051
  0
LINE
  8
0
 10
42.0109
 20
146.051
 11
41.1131
 21
146.137
  0
LINE
  8
0
 10
41.1131
 20
146.137
 11
40.2316
 21
146.401
  0
LINE
  8
0
 10
40.2316
 20
146.401
 11
39.3984
 21
146.832
  0
LINE
  8
0
 10
39.3984
 20
146.832
 11
38.6435
 21
147.415
  0
LINE
  8
0
 10
38.6435
 20
147.415
 11
38.0991
 21
148.012
  0
LINE
  8
0
 10
38.0991
 20
148.012
 11
37.7216
 21
147.918
  0
LINE
  8
0
 10
37.7216
 20
147.918
 11
36.8144
 21
147.823
  0
LINE
  8
0
 10
36.8144
 20
147.823
 11
35.6485
 21
147.037
  0
LINE
  8
0
 10
35.6485
 20
147.037
 11
35.2235
 21
146.194
  0
LINE
  8
0
 10
35.2235
 20
146.194
 11
35.0016
 21
145.874
  0
LINE
  8
0
 10
35.0016
 20
145.874
 11
35.3676
 21
145.153
  0
LINE
  8
0
 10
35.3676
 20
145.153
 11
35.6446
 21
144.241
  0
LINE
  8
0
 10
35.6446
 20
144.241
 11
35.752
 21
143.309
  0
LINE
  8
0
 10
35.752
 20
143.309
 11
35.686
 21
142.391
  0
LINE
  8
0
 10
35.686
 20
142.391
 11
35.4489
 21
141.521
  0
LINE
  8
0
 10
35.4489
 20
141.521
 11
35.0493
 21
140.73
  0
LINE
  8
0
 10
35.0493
 20
140.73
 11
34.5016
 21
140.046
  0
LINE
  8
0
 10
34.5016
 20
140.046
 11
33.8257
 21
139.494
  0
LINE
  8
0
 10
33.8257
 20
139.494
 11
33.0459
 21
139.094
  0
LINE
  8
0
 10
33.0459
 20
139.094
 11
32.1905
 21
138.861
  0
LINE
  8
0
 10
32.1905
 20
138.861
 11
31.2904
 21
138.802
  0
LINE
  8
0
 10
31.2904
 20
138.802
 11
30.378
 21
138.921
  0
LINE
  8
0
 10
30.378
 20
138.921
 11
29.4864
 21
139.213
  0
LINE
  8
0
 10
29.4864
 20
139.213
 11
28.6479
 21
139.667
  0
LINE
  8
0
 10
28.6479
 20
139.667
 11
28.0146
 21
140.17
  0
LINE
  8
0
 10
28.0146
 20
140.17
 11
27.6571
 21
140.016
  0
LINE
  8
0
 10
27.6571
 20
140.016
 11
26.7309
 21
139.764
  0
LINE
  8
0
 10
26.7309
 20
139.764
 11
25.7831
 21
138.911
  0
LINE
  8
0
 10
25.7831
 20
138.911
 11
25.468
 21
137.914
  0
LINE
  8
0
 10
25.468
 20
137.914
 11
25.3002
 21
137.563
  0
LINE
  8
0
 10
25.3002
 20
137.563
 11
25.7771
 21
136.91
  0
LINE
  8
0
 10
25.7771
 20
136.91
 11
26.1969
 21
136.053
  0
LINE
  8
0
 10
26.1969
 20
136.053
 11
26.4524
 21
135.151
  0
LINE
  8
0
 10
26.4524
 20
135.151
 11
26.5345
 21
134.234
  0
LINE
  8
0
 10
26.5345
 20
134.234
 11
26.44
 21
133.337
  0
LINE
  8
0
 10
26.44
 20
133.337
 11
26.1726
 21
132.492
  0
LINE
  8
0
 10
26.1726
 20
132.492
 11
25.7417
 21
131.729
  0
LINE
  8
0
 10
25.7417
 20
131.729
 11
25.1631
 21
131.076
  0
LINE
  8
0
 10
25.1631
 20
131.076
 11
24.4575
 21
130.556
  0
LINE
  8
0
 10
24.4575
 20
130.556
 11
23.6506
 21
130.189
  0
LINE
  8
0
 10
23.6506
 20
130.189
 11
22.7714
 21
129.987
  0
LINE
  8
0
 10
22.7714
 20
129.987
 11
21.8518
 21
129.958
  0
LINE
  8
0
 10
21.8518
 20
129.958
 11
20.925
 21
130.103
  0
LINE
  8
0
 10
20.925
 20
130.103
 11
20.0245
 21
130.416
  0
LINE
  8
0
 10
20.0245
 20
130.416
 11
19.3188
 21
130.811
  0
LINE
  8
0
 10
19.3188
 20
130.811
 11
18.9905
 21
130.602
  0
LINE
  8
0
 10
18.9905
 20
130.602
 11
17.9916
 21
130.148
  0
LINE
  8
0
 10
17.9916
 20
130.148
 11
17.3419
 21
129.373
  0
LINE
  8
0
 10
17.3419
 20
129.373
 11
17.167
 21
128.175
  0
LINE
  8
0
 10
17.167
 20
128.175
 11
17.0578
 21
127.802
  0
LINE
  8
0
 10
17.0578
 20
127.802
 11
17.6333
 21
127.234
  0
LINE
  8
0
 10
17.6333
 20
127.234
 11
18.185
 21
126.456
  0
LINE
  8
0
 10
18.185
 20
126.456
 11
18.5819
 21
125.606
  0
LINE
  8
0
 10
18.5819
 20
125.606
 11
18.8099
 21
124.715
  0
LINE
  8
0
 10
18.8099
 20
124.715
 11
18.8606
 21
123.814
  0
LINE
  8
0
 10
18.8606
 20
123.814
 11
18.7322
 21
122.937
  0
LINE
  8
0
 10
18.7322
 20
122.937
 11
18.4293
 21
122.115
  0
LINE
  8
0
 10
18.4293
 20
122.115
 11
17.963
 21
121.377
  0
LINE
  8
0
 10
17.963
 20
121.377
 11
17.3499
 21
120.751
  0
LINE
  8
0
 10
17.3499
 20
120.751
 11
16.6124
 21
120.259
  0
LINE
  8
0
 10
16.6124
 20
120.259
 11
15.777
 21
119.919
  0
LINE
  8
0
 10
15.777
 20
119.919
 11
14.8739
 21
119.743
  0
LINE
  8
0
 10
14.8739
 20
119.743
 11
13.9359
 21
119.737
  0
LINE
  8
0
 10
13.9359
 20
119.737
 11
12.9967
 21
119.902
  0
LINE
  8
0
 10
12.9967
 20
119.902
 11
12.2368
 21
120.178
  0
LINE
  8
0
 10
12.2368
 20
120.178
 11
11.9463
 21
119.92
  0
LINE
  8
0
 10
11.9463
 20
119.92
 11
10.8524
 21
119.19
  0
LINE
  8
0
 10
10.8524
 20
119.19
 11
10.5163
 21
118.435
  0
LINE
  8
0
 10
10.5163
 20
118.435
 11
10.5357
 21
117.232
  0
LINE
  8
0
 10
10.5357
 20
117.232
 11
10.4878
 21
116.846
  0
LINE
  8
0
 10
10.4878
 20
116.846
 11
11.1469
 21
116.377
  0
LINE
  8
0
 10
11.1469
 20
116.377
 11
11.8162
 21
115.698
  0
LINE
  8
0
 10
11.8162
 20
115.698
 11
12.3444
 21
114.923
  0
LINE
  8
0
 10
12.3444
 20
114.923
 11
12.7124
 21
114.08
  0
LINE
  8
0
 10
12.7124
 20
114.08
 11
12.9069
 21
113.199
  0
LINE
  8
0
 10
12.9069
 20
113.199
 11
12.9209
 21
112.312
  0
LINE
  8
0
 10
12.9209
 20
112.312
 11
12.7538
 21
111.452
  0
LINE
  8
0
 10
12.7538
 20
111.452
 11
12.4118
 21
110.649
  0
LINE
  8
0
 10
12.4118
 20
110.649
 11
11.9072
 21
109.933
  0
LINE
  8
0
 10
11.9072
 20
109.933
 11
11.2581
 21
109.329
  0
LINE
  8
0
 10
11.2581
 20
109.329
 11
10.4881
 21
108.859
  0
LINE
  8
0
 10
10.4881
 20
108.859
 11
9.62503
 21
108.54
  0
LINE
  8
0
 10
9.62503
 20
108.54
 11
8.70004
 21
108.384
  0
LINE
  8
0
 10
8.70004
 20
108.384
 11
7.74657
 21
108.396
  0
LINE
  8
0
 10
7.74657
 20
108.396
 11
6.95219
 21
108.547
  0
LINE
  8
0
 10
6.95219
 20
108.547
 11
6.70692
 21
108.245
  0
LINE
  8
0
 10
6.70692
 20
108.245
 11
5.88628
 21
107.482
  0
LINE
  8
0
 10
5.88628
 20
107.482
 11
5.56648
 21
106.367
  0
LINE
  8
0
 10
5.56648
 20
106.367
 11
5.74571
 21
105.366
  0
LINE
  8
0
 10
5.74571
 20
105.366
 11
5.76035
 21
104.977
  0
LINE
  8
0
 10
5.76035
 20
104.977
 11
6.4861
 21
104.621
  0
LINE
  8
0
 10
6.4861
 20
104.621
 11
7.25568
 21
104.058
  0
LINE
  8
0
 10
7.25568
 20
104.058
 11
7.90138
 21
103.377
  0
LINE
  8
0
 10
7.90138
 20
103.377
 11
8.39987
 21
102.604
  0
LINE
  8
0
 10
8.39987
 20
102.604
 11
8.73315
 21
101.766
  0
LINE
  8
0
 10
8.73315
 20
101.766
 11
8.88916
 21
100.893
  0
LINE
  8
0
 10
8.88916
 20
100.893
 11
8.86227
 21
100.017
  0
LINE
  8
0
 10
8.86227
 20
100.017
 11
8.65344
 21
99.1699
  0
LINE
  8
0
 10
8.65344
 20
99.1699
 11
8.27022
 21
98.3819
  0
LINE
  8
0
 10
8.27022
 20
98.3819
 11
7.72647
 21
97.6816
  0
LINE
  8
0
 10
7.72647
 20
97.6816
 11
7.04184
 21
97.0943
  0
LINE
  8
0
 10
7.04184
 20
97.0943
 11
6.24106
 21
96.6412
  0
LINE
  8
0
 10
6.24106
 20
96.6412
 11
5.35309
 21
96.3387
  0
LINE
  8
0
 10
5.35309
 20
96.3387
 11
4.41
 21
96.1978
  0
LINE
  8
0
 10
4.41
 20
96.1978
 11
3.6017
 21
96.2194
  0
LINE
  8
0
 10
3.6017
 20
96.2194
 11
3.40807
 21
95.882
  0
LINE
  8
0
 10
3.40807
 20
95.882
 11
2.80287
 21
95.1031
  0
LINE
  8
0
 10
2.80287
 20
95.1031
 11
2.61397
 21
93.7589
  0
LINE
  8
0
 10
2.61397
 20
93.7589
 11
2.92114
 21
92.8859
  0
LINE
  8
0
 10
2.92114
 20
92.8859
 11
2.99796
 21
92.5045
  0
LINE
  8
0
 10
2.99796
 20
92.5045
 11
3.7715
 21
92.269
  0
LINE
  8
0
 10
3.7715
 20
92.269
 11
4.62143
 21
91.8367
  0
LINE
  8
0
 10
4.62143
 20
91.8367
 11
5.36792
 21
91.2686
  0
LINE
  8
0
 10
5.36792
 20
91.2686
 11
5.98402
 21
90.5853
  0
LINE
  8
0
 10
5.98402
 20
90.5853
 11
6.44743
 21
89.8114
  0
LINE
  8
0
 10
6.44743
 20
89.8114
 11
6.74144
 21
88.9749
  0
LINE
  8
0
 10
6.74144
 20
88.9749
 11
6.85539
 21
88.1061
  0
LINE
  8
0
 10
6.85539
 20
88.1061
 11
6.78517
 21
87.2363
  0
LINE
  8
0
 10
6.78517
 20
87.2363
 11
6.53333
 21
86.397
  0
LINE
  8
0
 10
6.53333
 20
86.397
 11
6.10895
 21
85.6185
  0
LINE
  8
0
 10
6.10895
 20
85.6185
 11
5.52739
 21
84.929
  0
LINE
  8
0
 10
5.52739
 20
84.929
 11
4.80966
 21
84.3533
  0
LINE
  8
0
 10
4.80966
 20
84.3533
 11
3.9817
 21
83.9123
  0
LINE
  8
0
 10
3.9817
 20
83.9123
 11
3.07344
 21
83.622
  0
LINE
  8
0
 10
3.07344
 20
83.622
 11
2.27214
 21
83.5136
  0
LINE
  8
0
 10
2.27214
 20
83.5136
 11
2.13515
 21
83.1495
  0
LINE
  8
0
 10
2.13515
 20
83.1495
 11
1.69519
 21
82.343
  0
LINE
  8
0
 10
1.69519
 20
82.343
 11
1.69519
 21
80.9205
  0
LINE
  8
0
 10
1.69519
 20
80.9205
 11
2.13515
 21
80.1141
  0
LINE
  8
0
 10
2.13515
 20
80.1141
 11
2.27214
 21
79.7499
  0
LINE
  8
0
 10
2.27214
 20
79.7499
 11
3.07344
 21
79.6415
  0
LINE
  8
0
 10
3.07344
 20
79.6415
 11
3.9817
 21
79.3512
  0
LINE
  8
0
 10
3.9817
 20
79.3512
 11
4.80966
 21
78.9102
  0
LINE
  8
0
 10
4.80966
 20
78.9102
 11
5.52739
 21
78.3346
  0
LINE
  8
0
 10
5.52739
 20
78.3346
 11
6.10895
 21
77.645
  0
LINE
  8
0
 10
6.10895
 20
77.645
 11
6.53333
 21
76.8665
  0
LINE
  8
0
 10
6.53333
 20
76.8665
 11
6.78517
 21
76.0273
  0
LINE
  8
0
 10
6.78517
 20
76.0273
 11
6.85539
 21
75.1575
  0
LINE
  8
0
 10
6.85539
 20
75.1575
 11
6.74144
 21
74.2886
  0
LINE
  8
0
 10
6.74144
 20
74.2886
 11
6.44743
 21
73.4522
  0
LINE
  8
0
 10
6.44743
 20
73.4522
 11
5.98402
 21
72.6783
  0
LINE
  8
0
 10
5.98402
 20
72.6783
 11
5.36792
 21
71.9949
  0
LINE
  8
0
 10
5.36792
 20
71.9949
 11
4.62143
 21
71.4269
  0
LINE
  8
0
 10
4.62143
 20
71.4269
 11
3.7715
 21
70.9946
  0
LINE
  8
0
 10
3.7715
 20
70.9946
 11
2.99796
 21
70.7591
  0
LINE
  8
0
 10
2.99796
 20
70.7591
 11
2.92114
 21
70.3777
  0
LINE
  8
0
 10
2.92114
 20
70.3777
 11
2.61397
 21
69.5046
  0
LINE
  8
0
 10
2.61397
 20
69.5046
 11
2.80287
 21
68.1605
  0
LINE
  8
0
 10
2.80287
 20
68.1605
 11
3.40807
 21
67.3816
  0
LINE
  8
0
 10
3.40807
 20
67.3816
 11
3.6017
 21
67.0441
  0
LINE
  8
0
 10
3.6017
 20
67.0441
 11
4.41
 21
67.0657
  0
LINE
  8
0
 10
4.41
 20
67.0657
 11
5.35309
 21
66.9248
  0
LINE
  8
0
 10
5.35309
 20
66.9248
 11
6.24106
 21
66.6223
  0
LINE
  8
0
 10
6.24106
 20
66.6223
 11
7.04184
 21
66.1693
  0
LINE
  8
0
 10
7.04184
 20
66.1693
 11
7.72647
 21
65.582
  0
LINE
  8
0
 10
7.72647
 20
65.582
 11
8.27022
 21
64.8816
  0
LINE
  8
0
 10
8.27022
 20
64.8816
 11
8.65344
 21
64.0936
  0
LINE
  8
0
 10
8.65344
 20
64.0936
 11
8.86227
 21
63.2463
  0
LINE
  8
0
 10
8.86227
 20
63.2463
 11
8.88916
 21
62.3705
  0
LINE
  8
0
 10
8.88916
 20
62.3705
 11
8.73315
 21
61.4977
  0
LINE
  8
0
 10
8.73315
 20
61.4977
 11
8.39987
 21
60.6595
  0
LINE
  8
0
 10
8.39987
 20
60.6595
 11
7.90138
 21
59.8862
  0
LINE
  8
0
 10
7.90138
 20
59.8862
 11
7.25568
 21
59.2057
  0
LINE
  8
0
 10
7.25568
 20
59.2057
 11
6.4861
 21
58.6427
  0
LINE
  8
0
 10
6.4861
 20
58.6427
 11
5.76035
 21
58.2861
  0
LINE
  8
0
 10
5.76035
 20
58.2861
 11
5.74571
 21
57.8973
  0
LINE
  8
0
 10
5.74571
 20
57.8973
 11
5.56648
 21
56.8966
  0
LINE
  8
0
 10
5.56648
 20
56.8966
 11
5.88628
 21
55.7814
  0
LINE
  8
0
 10
5.88628
 20
55.7814
 11
6.70692
 21
55.0181
  0
LINE
  8
0
 10
6.70692
 20
55.0181
 11
6.95219
 21
54.7161
  0
LINE
  8
0
 10
6.95219
 20
54.7161
 11
7.74657
 21
54.8671
  0
LINE
  8
0
 10
7.74657
 20
54.8671
 11
8.70004
 21
54.8793
  0
LINE
  8
0
 10
8.70004
 20
54.8793
 11
9.62503
 21
54.7232
  0
LINE
  8
0
 10
9.62503
 20
54.7232
 11
10.4881
 21
54.4044
  0
LINE
  8
0
 10
10.4881
 20
54.4044
 11
11.2581
 21
53.9346
  0
LINE
  8
0
 10
11.2581
 20
53.9346
 11
11.9072
 21
53.3305
  0
LINE
  8
0
 10
11.9072
 20
53.3305
 11
12.4118
 21
52.6142
  0
LINE
  8
0
 10
12.4118
 20
52.6142
 11
12.7538
 21
51.8114
  0
LINE
  8
0
 10
12.7538
 20
51.8114
 11
12.9209
 21
50.9512
  0
LINE
  8
0
 10
12.9209
 20
50.9512
 11
12.9069
 21
50.0646
  0
LINE
  8
0
 10
12.9069
 20
50.0646
 11
12.7124
 21
49.1838
  0
LINE
  8
0
 10
12.7124
 20
49.1838
 11
12.3444
 21
48.3406
  0
LINE
  8
0
 10
12.3444
 20
48.3406
 11
11.8162
 21
47.5653
  0
LINE
  8
0
 10
11.8162
 20
47.5653
 11
11.1469
 21
46.8861
  0
LINE
  8
0
 10
11.1469
 20
46.8861
 11
10.4878
 21
46.4178
  0
LINE
  8
0
 10
10.4878
 20
46.4178
 11
10.5357
 21
46.0317
  0
LINE
  8
0
 10
10.5357
 20
46.0317
 11
10.5163
 21
44.8282
  0
LINE
  8
0
 10
10.5163
 20
44.8282
 11
10.8524
 21
44.0733
  0
LINE
  8
0
 10
10.8524
 20
44.0733
 11
11.9463
 21
43.344
  0
LINE
  8
0
 10
11.9463
 20
43.344
 11
12.2368
 21
43.0852
  0
LINE
  8
0
 10
12.2368
 20
43.0852
 11
12.9967
 21
43.3616
  0
LINE
  8
0
 10
12.9967
 20
43.3616
 11
13.9359
 21
43.5266
  0
LINE
  8
0
 10
13.9359
 20
43.5266
 11
14.8739
 21
43.521
  0
LINE
  8
0
 10
14.8739
 20
43.521
 11
15.777
 21
43.3448
  0
LINE
  8
0
 10
15.777
 20
43.3448
 11
16.6124
 21
43.0045
  0
LINE
  8
0
 10
16.6124
 20
43.0045
 11
17.3499
 21
42.5124
  0
LINE
  8
0
 10
17.3499
 20
42.5124
 11
17.963
 21
41.8863
  0
LINE
  8
0
 10
17.963
 20
41.8863
 11
18.4293
 21
41.1487
  0
LINE
  8
0
 10
18.4293
 20
41.1487
 11
18.7322
 21
40.3265
  0
LINE
  8
0
 10
18.7322
 20
40.3265
 11
18.8606
 21
39.4492
  0
LINE
  8
0
 10
18.8606
 20
39.4492
 11
18.8099
 21
38.5486
  0
LINE
  8
0
 10
18.8099
 20
38.5486
 11
18.5819
 21
37.6572
  0
LINE
  8
0
 10
18.5819
 20
37.6572
 11
18.185
 21
36.8073
  0
LINE
  8
0
 10
18.185
 20
36.8073
 11
17.6333
 21
36.0295
  0
LINE
  8
0
 10
17.6333
 20
36.0295
 11
17.0578
 21
35.4615
  0
LINE
  8
0
 10
17.0578
 20
35.4615
 11
17.167
 21
35.0881
  0
LINE
  8
0
 10
17.167
 20
35.0881
 11
17.3419
 21
33.8902
  0
LINE
  8
0
 10
17.3419
 20
33.8902
 11
17.9916
 21
33.1159
  0
LINE
  8
0
 10
17.9916
 20
33.1159
 11
18.9905
 21
32.6615
  0
LINE
  8
0
 10
18.9905
 20
32.6615
 11
19.3188
 21
32.4526
  0
LINE
  8
0
 10
19.3188
 20
32.4526
 11
20.0245
 21
32.8474
  0
LINE
  8
0
 10
20.0245
 20
32.8474
 11
20.925
 21
33.1609
  0
LINE
  8
0
 10
20.925
 20
33.1609
 11
21.8518
 21
33.3058
  0
LINE
  8
0
 10
21.8518
 20
33.3058
 11
22.7714
 21
33.2767
  0
LINE
  8
0
 10
22.7714
 20
33.2767
 11
23.6506
 21
33.0749
  0
LINE
  8
0
 10
23.6506
 20
33.0749
 11
24.4575
 21
32.7074
  0
LINE
  8
0
 10
24.4575
 20
32.7074
 11
25.1631
 21
32.1878
  0
LINE
  8
0
 10
25.1631
 20
32.1878
 11
25.7417
 21
31.5346
  0
LINE
  8
0
 10
25.7417
 20
31.5346
 11
26.1726
 21
30.7716
  0
LINE
  8
0
 10
26.1726
 20
30.7716
 11
26.44
 21
29.9262
  0
LINE
  8
0
 10
26.44
 20
29.9262
 11
26.5345
 21
29.0292
  0
LINE
  8
0
 10
26.5345
 20
29.0292
 11
26.4524
 21
28.1128
  0
LINE
  8
0
 10
26.4524
 20
28.1128
 11
26.1969
 21
27.2102
  0
LINE
  8
0
 10
26.1969
 20
27.2102
 11
25.7771
 21
26.354
  0
LINE
  8
0
 10
25.7771
 20
26.354
 11
25.3002
 21
25.701
  0
LINE
  8
0
 10
25.3002
 20
25.701
 11
25.468
 21
25.3499
  0
LINE
  8
0
 10
25.468
 20
25.3499
 11
25.7831
 21
24.3529
  0
LINE
  8
0
 10
25.7831
 20
24.3529
 11
26.7309
 21
23.4994
  0
LINE
  8
0
 10
26.7309
 20
23.4994
 11
27.6571
 21
23.2473
  0
LINE
  8
0
 10
27.6571
 20
23.2473
 11
28.0146
 21
23.0938
  0
LINE
  8
0
 10
28.0146
 20
23.0938
 11
28.6479
 21
23.5966
  0
LINE
  8
0
 10
28.6479
 20
23.5966
 11
29.4864
 21
24.0505
  0
LINE
  8
0
 10
29.4864
 20
24.0505
 11
30.378
 21
24.3422
  0
LINE
  8
0
 10
30.378
 20
24.3422
 11
31.2904
 21
24.4611
  0
LINE
  8
0
 10
31.2904
 20
24.4611
 11
32.1905
 21
24.4028
  0
LINE
  8
0
 10
32.1905
 20
24.4028
 11
33.0459
 21
24.1696
  0
LINE
  8
0
 10
33.0459
 20
24.1696
 11
33.8257
 21
23.7698
  0
LINE
  8
0
 10
33.8257
 20
23.7698
 11
34.5016
 21
23.218
  0
LINE
  8
0
 10
34.5016
 20
23.218
 11
35.0493
 21
22.5339
  0
LINE
  8
0
 10
35.0493
 20
22.5339
 11
35.4489
 21
21.7424
  0
LINE
  8
0
 10
35.4489
 20
21.7424
 11
35.686
 21
20.8721
  0
LINE
  8
0
 10
35.686
 20
20.8721
 11
35.752
 21
19.9544
  0
LINE
  8
0
 10
35.752
 20
19.9544
 11
35.6446
 21
19.0225
  0
LINE
  8
0
 10
35.6446
 20
19.0225
 11
35.3676
 21
18.1101
  0
LINE
  8
0
 10
35.3676
 20
18.1101
 11
35.0016
 21
17.3891
  0
LINE
  8
0
 10
35.0016
 20
17.3891
 11
35.2235
 21
17.0695
  0
LINE
  8
0
 10
35.2235
 20
17.0695
 11
35.6485
 21
16.2269
  0
LINE
  8
0
 10
35.6485
 20
16.2269
 11
36.8144
 21
15.4405
  0
LINE
  8
0
 10
36.8144
 20
15.4405
 11
37.7216
 21
15.3452
  0
LINE
  8
0
 10
37.7216
 20
15.3452
 11
38.0991
 21
15.2511
  0
LINE
  8
0
 10
38.0991
 20
15.2511
 11
38.6435
 21
15.849
  0
LINE
  8
0
 10
38.6435
 20
15.849
 11
39.3984
 21
16.4315
  0
LINE
  8
0
 10
39.3984
 20
16.4315
 11
40.2316
 21
16.8624
  0
LINE
  8
0
 10
40.2316
 20
16.8624
 11
41.1131
 21
17.1261
  0
LINE
  8
0
 10
41.1131
 20
17.1261
 11
42.0109
 21
17.213
  0
LINE
  8
0
 10
42.0109
 20
17.213
 11
42.8927
 21
17.12
  0
LINE
  8
0
 10
42.8927
 20
17.12
 11
43.7265
 21
16.8505
  0
LINE
  8
0
 10
43.7265
 20
16.8505
 11
44.4822
 21
16.4142
  0
LINE
  8
0
 10
44.4822
 20
16.4142
 11
45.1325
 21
15.8269
  0
LINE
  8
0
 10
45.1325
 20
15.8269
 11
45.6539
 21
15.1097
  0
LINE
  8
0
 10
45.6539
 20
15.1097
 11
46.0275
 21
14.2887
  0
LINE
  8
0
 10
46.0275
 20
14.2887
 11
46.2399
 21
13.3935
  0
LINE
  8
0
 10
46.2399
 20
13.3935
 11
46.2834
 21
12.4565
  0
LINE
  8
0
 10
46.2834
 20
12.4565
 11
46.1563
 21
11.5114
  0
LINE
  8
0
 10
46.1563
 20
11.5114
 11
45.9107
 21
10.741
  0
LINE
  8
0
 10
45.9107
 20
10.741
 11
46.181
 21
10.4611
  0
LINE
  8
0
 10
46.181
 20
10.4611
 11
46.7171
 21
9.72318
  0
LINE
  8
0
 10
46.7171
 20
9.72318
 11
47.9811
 21
9.1067
  0
LINE
  8
0
 10
47.9811
 20
9.1067
 11
48.9233
 21
9.15988
  0
LINE
  8
0
 10
48.9233
 20
9.15988
 11
49.3111
 21
9.12753
  0
LINE
  8
0
 10
49.3111
 20
9.12753
 11
49.7525
 21
9.80502
  0
LINE
  8
0
 10
49.7525
 20
9.80502
 11
50.4041
 21
10.5011
  0
LINE
  8
0
 10
50.4041
 20
10.5011
 11
51.1575
 21
11.0601
  0
LINE
  8
0
 10
51.1575
 20
11.0601
 11
51.9852
 21
11.4617
  0
LINE
  8
0
 10
51.9852
 20
11.4617
 11
52.8575
 21
11.6916
  0
LINE
  8
0
 10
52.8575
 20
11.6916
 11
53.7428
 21
11.7412
  0
LINE
  8
0
 10
53.7428
 20
11.7412
 11
54.609
 21
11.609
  0
LINE
  8
0
 10
54.609
 20
11.609
 11
55.4249
 21
11.2995
  0
LINE
  8
0
 10
55.4249
 20
11.2995
 11
56.161
 21
10.8241
  0
LINE
  8
0
 10
56.161
 20
10.8241
 11
56.7907
 21
10.1999
  0
LINE
  8
0
 10
56.7907
 20
10.1999
 11
57.2912
 21
9.44948
  0
LINE
  8
0
 10
57.2912
 20
9.44948
 11
57.6444
 21
8.59993
  0
LINE
  8
0
 10
57.6444
 20
8.59993
 11
57.8376
 21
7.68198
  0
LINE
  8
0
 10
57.8376
 20
7.68198
 11
57.8638
 21
6.72879
  0
LINE
  8
0
 10
57.8638
 20
6.72879
 11
57.745
 21
5.92897
  0
LINE
  8
0
 10
57.745
 20
5.92897
 11
58.0566
 21
5.69608
  0
LINE
  8
0
 10
58.0566
 20
5.69608
 11
58.7381
 21
5.02008
  0
LINE
  8
0
 10
58.7381
 20
5.02008
 11
59.9512
 21
4.62593
  0
LINE
  8
0
 10
59.9512
 20
4.62593
 11
60.9722
 21
4.85158
  0
LINE
  8
0
 10
60.9722
 20
4.85158
 11
61.3601
 21
4.88184
  0
LINE
  8
0
 10
61.3601
 20
4.88184
 11
61.6871
 21
5.62137
  0
LINE
  8
0
 10
61.6871
 20
5.62137
 11
62.2187
 21
6.41298
  0
LINE
  8
0
 10
62.2187
 20
6.41298
 11
62.8726
 21
7.08557
  0
LINE
  8
0
 10
62.8726
 20
7.08557
 11
63.6252
 21
7.61481
  0
LINE
  8
0
 10
63.6252
 20
7.61481
 11
64.4493
 21
7.98155
  0
LINE
  8
0
 10
64.4493
 20
7.98155
 11
65.3151
 21
8.17259
  0
LINE
  8
0
 10
65.3151
 20
8.17259
 11
66.1914
 21
8.18098
  0
LINE
  8
0
 10
66.1914
 20
8.18098
 11
67.0464
 21
8.00644
  0
LINE
  8
0
 10
67.0464
 20
8.00644
 11
67.8492
 21
7.65526
  0
LINE
  8
0
 10
67.8492
 20
7.65526
 11
68.5708
 21
7.14015
  0
LINE
  8
0
 10
68.5708
 20
7.14015
 11
69.1852
 21
6.47972
  0
LINE
  8
0
 10
69.1852
 20
6.47972
 11
69.6702
 21
5.69783
  0
LINE
  8
0
 10
69.6702
 20
5.69783
 11
70.0081
 21
4.82275
  0
LINE
  8
0
 10
70.0081
 20
4.82275
 11
70.1869
 21
3.88612
  0
LINE
  8
0
 10
70.1869
 20
3.88612
 11
70.1979
 21
3.07759
  0
LINE
  8
0
 10
70.1979
 20
3.07759
 11
70.5429
 21
2.89771
  0
LINE
  8
0
 10
70.5429
 20
2.89771
 11
71.4358
 21
2.25986
  0
LINE
  8
0
 10
71.4358
 20
2.25986
 11
72.4312
 21
2.08435
  0
LINE
  8
0
 10
72.4312
 20
2.08435
 11
73.5561
 21
2.53183
  0
LINE
  8
0
 10
73.5561
 20
2.53183
 11
73.9342
 21
2.62392
  0
LINE
  8
0
 10
73.9342
 20
2.62392
 11
74.1383
 21
3.40633
  0
LINE
  8
0
 10
74.1383
 20
3.40633
 11
74.536
 21
4.27296
  0
LINE
  8
0
 10
74.536
 20
4.27296
 11
75.0736
 21
5.04173
  0
LINE
  8
0
 10
75.0736
 20
5.04173
 11
75.7316
 21
5.68484
  0
LINE
  8
0
 10
75.7316
 20
5.68484
 11
76.4862
 21
6.17905
  0
LINE
  8
0
 10
76.4862
 20
6.17905
 11
77.3101
 21
6.5065
  0
LINE
  8
0
 10
77.3101
 20
6.5065
 11
78.1737
 21
6.65533
  0
LINE
  8
0
 10
78.1737
 20
6.65533
 11
79.0456
 21
6.62019
  0
LINE
  8
0
 10
79.0456
 20
6.62019
 11
79.8943
 21
6.40236
  0
LINE
  8
0
 10
79.8943
 20
6.40236
 11
80.6893
 21
6.00967
  0
LINE
  8
0
 10
80.6893
 20
6.00967
 11
81.4017
 21
5.45634
  0
LINE
  8
0
 10
81.4017
 20
5.45634
 11
82.0057
 21
4.76237
  0
LINE
  8
0
 10
82.0057
 20
4.76237
 11
82.4797
 21
3.95285
  0
LINE
  8
0
 10
82.4797
 20
3.95285
 11
82.8064
 21
3.05702
  0
LINE
  8
0
 10
82.8064
 20
3.05702
 11
82.9469
 21
2.26073
  0
LINE
  8
0
 10
82.9469
 20
2.26073
 11
83.3163
 21
2.1385
  0
LINE
  8
0
 10
83.3163
 20
2.1385
 11
84.4949
 21
1.5558
  0
LINE
  8
0
 10
84.4949
 20
1.5558
 11
85.3167
 21
1.64218
  0
LINE
  8
0
 10
98.04
 20
128.975
 11
97.0826
 21
129.185
  0
LINE
  8
0
 10
97.0826
 20
129.185
 11
96.1846
 21
129.577
  0
LINE
  8
0
 10
96.1846
 20
129.577
 11
95.3805
 21
130.138
  0
LINE
  8
0
 10
95.3805
 20
130.138
 11
94.7011
 21
130.844
  0
LINE
  8
0
 10
94.7011
 20
130.844
 11
94.1727
 21
131.67
  0
LINE
  8
0
 10
94.1727
 20
131.67
 11
93.8154
 21
132.583
  0
LINE
  8
0
 10
93.8154
 20
132.583
 11
93.6431
 21
133.548
  0
LINE
  8
0
 10
93.6431
 20
133.548
 11
93.6624
 21
134.528
  0
LINE
  8
0
 10
93.6624
 20
134.528
 11
93.8724
 21
135.485
  0
LINE
  8
0
 10
93.8724
 20
135.485
 11
94.2652
 21
136.383
  0
LINE
  8
0
 10
94.2652
 20
136.383
 11
94.8257
 21
137.187
  0
LINE
  8
0
 10
94.8257
 20
137.187
 11
95.5322
 21
137.866
  0
LINE
  8
0
 10
95.5322
 20
137.866
 11
96.3577
 21
138.395
  0
LINE
  8
0
 10
96.3577
 20
138.395
 11
97.2705
 21
138.752
  0
LINE
  8
0
 10
97.2705
 20
138.752
 11
98.2354
 21
138.924
  0
LINE
  8
0
 10
98.2354
 20
138.924
 11
99.2154
 21
138.905
  0
LINE
  8
0
 10
99.2154
 20
138.905
 11
100.173
 21
138.695
  0
LINE
  8
0
 10
100.173
 20
138.695
 11
101.071
 21
138.302
  0
LINE
  8
0
 10
101.071
 20
138.302
 11
101.875
 21
137.742
  0
LINE
  8
0
 10
101.875
 20
137.742
 11
102.554
 21
137.035
  0
LINE
  8
0
 10
102.554
 20
137.035
 11
103.083
 21
136.21
  0
LINE
  8
0
 10
103.083
 20
136.21
 11
103.44
 21
135.297
  0
LINE
  8
0
 10
103.44
 20
135.297
 11
103.612
 21
134.332
  0
LINE
  8
0
 10
103.612
 20
134.332
 11
103.593
 21
133.352
  0
LINE
  8
0
 10
103.593
 20
133.352
 11
103.383
 21
132.395
  0
LINE
  8
0
 10
103.383
 20
132.395
 11
102.99
 21
131.497
  0
LINE
  8
0
 10
102.99
 20
131.497
 11
102.43
 21
130.693
  0
LINE
  8
0
 10
102.43
 20
130.693
 11
101.723
 21
130.013
  0
LINE
  8
0
 10
101.723
 20
130.013
 11
100.898
 21
129.485
  0
LINE
  8
0
 10
100.898
 20
129.485
 11
99.9849
 21
129.128
  0
LINE
  8
0
 10
99.9849
 20
129.128
 11
99.02
 21
128.955
  0
LINE
  8
0
 10
99.02
 20
128.955
 11
98.04
 21
128.975
  0
LINE
  8
0
 10
76.5491
 20
33.2731
 11
69.8683
 21
34.4511
  0
LINE
  8
0
 10
69.8683
 20
34.4511
 11
63.4165
 21
36.5475
  0
LINE
  8
0
 10
63.4165
 20
36.5475
 11
57.3193
 21
39.5213
  0
LINE
  8
0
 10
57.3193
 20
39.5213
 11
51.6952
 21
43.3147
  0
LINE
  8
0
 10
51.6952
 20
43.3147
 11
46.6539
 21
47.854
  0
LINE
  8
0
 10
46.6539
 20
47.854
 11
42.2933
 21
53.0507
  0
LINE
  8
0
 10
42.2933
 20
53.0507
 11
38.6984
 21
58.8037
  0
LINE
  8
0
 10
38.6984
 20
58.8037
 11
35.9392
 21
65.001
  0
LINE
  8
0
 10
35.9392
 20
65.001
 11
34.0693
 21
71.5221
  0
LINE
  8
0
 10
34.0693
 20
71.5221
 11
33.1252
 21
78.2399
  0
LINE
  8
0
 10
33.1252
 20
78.2399
 11
33.1252
 21
85.0237
  0
LINE
  8
0
 10
33.1252
 20
85.0237
 11
34.0693
 21
91.7415
  0
LINE
  8
0
 10
34.0693
 20
91.7415
 11
35.9392
 21
98.2625
  0
LINE
  8
0
 10
35.9392
 20
98.2625
 11
38.6984
 21
104.46
  0
LINE
  8
0
 10
38.6984
 20
104.46
 11
42.2933
 21
110.213
  0
LINE
  8
0
 10
42.2933
 20
110.213
 11
46.6539
 21
115.41
  0
LINE
  8
0
 10
46.6539
 20
115.41
 11
51.6952
 21
119.949
  0
LINE
  8
0
 10
51.6952
 20
119.949
 11
57.3193
 21
123.742
  0
LINE
  8
0
 10
57.3193
 20
123.742
 11
63.4165
 21
126.716
  0
LINE
  8
0
 10
63.4165
 20
126.716
 11
69.8683
 21
128.812
  0
LINE
  8
0
 10
69.8683
 20
128.812
 11
76.5491
 21
129.99
  0
LINE
  8
0
 10
76.5491
 20
129.99
 11
83.3288
 21
130.227
  0
LINE
  8
0
 10
83.3288
 20
130.227
 11
90.0754
 21
129.518
  0
LINE
  8
0
 10
90.0754
 20
129.518
 11
96.6577
 21
127.877
  0
LINE
  8
0
 10
96.6577
 20
127.877
 11
102.948
 21
125.336
  0
LINE
  8
0
 10
102.948
 20
125.336
 11
108.823
 21
121.944
  0
LINE
  8
0
 10
108.823
 20
121.944
 11
114.168
 21
117.767
  0
LINE
  8
0
 10
114.168
 20
117.767
 11
118.881
 21
112.887
  0
LINE
  8
0
 10
118.881
 20
112.887
 11
122.868
 21
107.399
  0
LINE
  8
0
 10
122.868
 20
107.399
 11
126.053
 21
101.409
  0
LINE
  8
0
 10
126.053
 20
101.409
 11
128.373
 21
95.0346
  0
LINE
  8
0
 10
128.373
 20
95.0346
 11
129.784
 21
88.3991
  0
LINE
  8
0
 10
129.784
 20
88.3991
 11
130.257
 21
81.6318
  0
LINE
  8
0
 10
130.257
 20
81.6318
 11
129.784
 21
74.8645
  0
LINE
  8
0
 10
129.784
 20
74.8645
 11
128.373
 21
68.2289
  0
LINE
  8
0
 10
128.373
 20
68.2289
 11
126.053
 21
61.8542
  0
LINE
  8
0
 10
126.053
 20
61.8542
 11
122.868
 21
55.8644
  0
LINE
  8
0
 10
122.868
 20
55.8644
 11
118.881
 21
50.3762
  0
LINE
  8
0
 10
118.881
 20
50.3762
 11
114.168
 21
45.4964
  0
LINE
  8
0
 10
114.168
 20
45.4964
 11
108.823
 21
41.3198
  0
LINE
  8
0
 10
108.823
 20
41.3198
 11
102.948
 21
37.9279
  0
LINE
  8
0
 10
102.948
 20
37.9279
 11
96.6577
 21
35.3866
  0
LINE
  8
0
 10
96.6577
 20
35.3866
 11
90.0754
 21
33.7455
  0
LINE
  8
0
 10
90.0754
 20
33.7455
 11
83.3288
 21
33.0364
  0
LINE
  8
0
 10
83.3288
 20
33.0364
 11
76.5491
 21
33.2731
  0
LINE
  8
0
 10
35.9686
 20
109.098
 11
35.0425
 21
109.419
  0
LINE
  8
0
 10
35.0425
 20
109.419
 11
34.1969
 21
109.915
  0
LINE
  8
0
 10
34.1969
 20
109.915
 11
33.4642
 21
110.566
  0
LINE
  8
0
 10
33.4642
 20
110.566
 11
32.8726
 21
111.347
  0
LINE
  8
0
 10
32.8726
 20
111.347
 11
32.4449
 21
112.229
  0
LINE
  8
0
 10
32.4449
 20
112.229
 11
32.1974
 21
113.178
  0
LINE
  8
0
 10
32.1974
 20
113.178
 11
32.1397
 21
114.156
  0
LINE
  8
0
 10
32.1397
 20
114.156
 11
32.274
 21
115.127
  0
LINE
  8
0
 10
32.274
 20
115.127
 11
32.5951
 21
116.053
  0
LINE
  8
0
 10
32.5951
 20
116.053
 11
33.0907
 21
116.899
  0
LINE
  8
0
 10
33.0907
 20
116.899
 11
33.7418
 21
117.632
  0
LINE
  8
0
 10
33.7418
 20
117.632
 11
34.5233
 21
118.223
  0
LINE
  8
0
 10
34.5233
 20
118.223
 11
35.4052
 21
118.651
  0
LINE
  8
0
 10
35.4052
 20
118.651
 11
36.3537
 21
118.898
  0
LINE
  8
0
 10
36.3537
 20
118.898
 11
37.3321
 21
118.956
  0
LINE
  8
0
 10
37.3321
 20
118.956
 11
38.3031
 21
118.822
  0
LINE
  8
0
 10
38.3031
 20
118.822
 11
39.2291
 21
118.501
  0
LINE
  8
0
 10
39.2291
 20
118.501
 11
40.0748
 21
118.005
  0
LINE
  8
0
 10
40.0748
 20
118.005
 11
40.8074
 21
117.354
  0
LINE
  8
0
 10
40.8074
 20
117.354
 11
41.399
 21
116.572
  0
LINE
  8
0
 10
41.399
 20
116.572
 11
41.8268
 21
115.691
  0
LINE
  8
0
 10
41.8268
 20
115.691
 11
42.0743
 21
114.742
  0
LINE
  8
0
 10
42.0743
 20
114.742
 11
42.132
 21
113.764
  0
LINE
  8
0
 10
42.132
 20
113.764
 11
41.9977
 21
112.793
  0
LINE
  8
0
 10
41.9977
 20
112.793
 11
41.6765
 21
111.867
  0
LINE
  8
0
 10
41.6765
 20
111.867
 11
41.1809
 21
111.021
  0
LINE
  8
0
 10
41.1809
 20
111.021
 11
40.5298
 21
110.288
  0
LINE
  8
0
 10
40.5298
 20
110.288
 11
39.7483
 21
109.697
  0
LINE
  8
0
 10
39.7483
 20
109.697
 11
38.8664
 21
109.269
  0
LINE
  8
0
 10
38.8664
 20
109.269
 11
37.918
 21
109.022
  0
LINE
  8
0
 10
37.918
 20
109.022
 11
36.9395
 21
108.964
  0
LINE
  8
0
 10
36.9395
 20
108.964
 11
35.9686
 21
109.098
  0
LINE
  8
0
 10
135.656
 20
76.7278
 11
134.718
 21
77.0124
  0
LINE
  8
0
 10
134.718
 20
77.0124
 11
133.854
 21
77.4744
  0
LINE
  8
0
 10
133.854
 20
77.4744
 11
133.096
 21
78.0962
  0
LINE
  8
0
 10
133.096
 20
78.0962
 11
132.474
 21
78.8539
  0
LINE
  8
0
 10
132.474
 20
78.8539
 11
132.012
 21
79.7184
  0
LINE
  8
0
 10
132.012
 20
79.7184
 11
131.728
 21
80.6563
  0
LINE
  8
0
 10
131.728
 20
80.6563
 11
131.632
 21
81.6318
  0
LINE
  8
0
 10
131.632
 20
81.6318
 11
131.728
 21
82.6072
  0
LINE
  8
0
 10
131.728
 20
82.6072
 11
132.012
 21
83.5452
  0
LINE
  8
0
 10
132.012
 20
83.5452
 11
132.474
 21
84.4096
  0
LINE
  8
0
 10
132.474
 20
84.4096
 11
133.096
 21
85.1673
  0
LINE
  8
0
 10
133.096
 20
85.1673
 11
133.854
 21
85.7891
  0
LINE
  8
0
 10
133.854
 20
85.7891
 11
134.718
 21
86.2512
  0
LINE
  8
0
 10
134.718
 20
86.2512
 11
135.656
 21
86.5357
  0
LINE
  8
0
 10
135.656
 20
86.5357
 11
136.632
 21
86.6318
  0
LINE
  8
0
 10
136.632
 20
86.6318
 11
137.607
 21
86.5357
  0
LINE
  8
0
 10
137.607
 20
86.5357
 11
138.545
 21
86.2512
  0
LINE
  8
0
 10
138.545
 20
86.2512
 11
139.41
 21
85.7891
  0
LINE
  8
0
 10
139.41
 20
85.7891
 11
140.167
 21
85.1673
  0
LINE
  8
0
 10
140.167
 20
85.1673
 11
140.789
 21
84.4096
  0
LINE
  8
0
 10
140.789
 20
84.4096
 11
141.251
 21
83.5452
  0
LINE
  8
0
 10
141.251
 20
83.5452
 11
141.536
 21
82.6072
  0
LINE
  8
0
 10
141.536
 20
82.6072
 11
141.632
 21
81.6318
  0
LINE
  8
0
 10
141.632
 20
81.6318
 11
141.536
 21
80.6563
  0
LINE
  8
0
 10
141.536
 20
80.6563
 11
141.251
 21
79.7184
  0
LINE
  8
0
 10
141.251
 20
79.7184
 11
140.789
 21
78.8539
  0
LINE
  8
0
 10
140.789
 20
78.8539
 11
140.167
 21
78.0962
  0
LINE
  8
0
 10
140.167
 20
78.0962
 11
139.41
 21
77.4744
  0
LINE
  8
0
 10
139.41
 20
77.4744
 11
138.545
 21
77.0124
  0
LINE
  8
0
 10
138.545
 20
77.0124
 11
137.607
 21
76.7278
  0
LINE
  8
0
 10
137.607
 20
76.7278
 11
136.632
 21
76.6318
  0
LINE
  8
0
 10
136.632
 20
76.6318
 11
135.656
 21
76.7278
  0
LINE
  8
0
 10
36.3537
 20
44.3651
 11
35.4052
 21
44.6126
  0
LINE
  8
0
 10
35.4052
 20
44.6126
 11
34.5233
 21
45.0404
  0
LINE
  8
0
 10
34.5233
 20
45.0404
 11
33.7418
 21
45.632
  0
LINE
  8
0
 10
33.7418
 20
45.632
 11
33.0907
 21
46.3647
  0
LINE
  8
0
 10
33.0907
 20
46.3647
 11
32.5951
 21
47.2103
  0
LINE
  8
0
 10
32.5951
 20
47.2103
 11
32.274
 21
48.1364
  0
LINE
  8
0
 10
32.274
 20
48.1364
 11
32.1397
 21
49.1073
  0
LINE
  8
0
 10
32.1397
 20
49.1073
 11
32.1974
 21
50.0858
  0
LINE
  8
0
 10
32.1974
 20
50.0858
 11
32.4449
 21
51.0342
  0
LINE
  8
0
 10
32.4449
 20
51.0342
 11
32.8726
 21
51.9161
  0
LINE
  8
0
 10
32.8726
 20
51.9161
 11
33.4642
 21
52.6976
  0
LINE
  8
0
 10
33.4642
 20
52.6976
 11
34.1969
 21
53.3487
  0
LINE
  8
0
 10
34.1969
 20
53.3487
 11
35.0425
 21
53.8443
  0
LINE
  8
0
 10
35.0425
 20
53.8443
 11
35.9686
 21
54.1654
  0
LINE
  8
0
 10
35.9686
 20
54.1654
 11
36.9395
 21
54.2997
  0
LINE
  8
0
 10
36.9395
 20
54.2997
 11
37.918
 21
54.242
  0
LINE
  8
0
 10
37.918
 20
54.242
 11
38.8664
 21
53.9945
  0
LINE
  8
0
 10
38.8664
 20
53.9945
 11
39.7483
 21
53.5668
  0
LINE
  8
0
 10
39.7483
 20
53.5668
 11
40.5298
 21
52.9752
  0
LINE
  8
0
 10
40.5298
 20
52.9752
 11
41.1809
 21
52.2425
  0
LINE
  8
0
 10
41.1809
 20
52.2425
 11
41.6765
 21
51.3969
  0
LINE
  8
0
 10
41.6765
 20
51.3969
 11
41.9977
 21
50.4708
  0
LINE
  8
0
 10
41.9977
 20
50.4708
 11
42.132
 21
49.4999
  0
LINE
  8
0
 10
42.132
 20
49.4999
 11
42.0743
 21
48.5214
  0
LINE
  8
0
 10
42.0743
 20
48.5214
 11
41.8268
 21
47.573
  0
LINE
  8
0
 10
41.8268
 20
47.573
 11
41.399
 21
46.6911
  0
LINE
  8
0
 10
41.399
 20
46.6911
 11
40.8074
 21
45.9096
  0
LINE
  8
0
 10
40.8074
 20
45.9096
 11
40.0748
 21
45.2585
  0
LINE
  8
0
 10
40.0748
 20
45.2585
 11
39.2291
 21
44.7629
  0
LINE
  8
0
 10
39.2291
 20
44.7629
 11
38.3031
 21
44.4417
  0
LINE
  8
0
 10
38.3031
 20
44.4417
 11
37.3321
 21
44.3074
  0
LINE
  8
0
 10
37.3321
 20
44.3074
 11
36.3537
 21
44.3651
  0
LINE
  8
0
 10
97.2705
 20
24.5114
 11
96.3577
 21
24.8686
  0
LINE
  8
0
 10
96.3577
 20
24.8686
 11
95.5322
 21
25.3971
  0
LINE
  8
0
 10
95.5322
 20
25.3971
 11
94.8257
 21
26.0764
  0
LINE
  8
0
 10
94.8257
 20
26.0764
 11
94.2652
 21
26.8806
  0
LINE
  8
0
 10
94.2652
 20
26.8806
 11
93.8724
 21
27.7786
  0
LINE
  8
0
 10
93.8724
 20
27.7786
 11
93.6624
 21
28.736
  0
LINE
  8
0
 10
93.6624
 20
28.736
 11
93.6431
 21
29.7159
  0
LINE
  8
0
 10
93.6431
 20
29.7159
 11
93.8154
 21
30.6809
  0
LINE
  8
0
 10
93.8154
 20
30.6809
 11
94.1727
 21
31.5936
  0
LINE
  8
0
 10
94.1727
 20
31.5936
 11
94.7011
 21
32.4191
  0
LINE
  8
0
 10
94.7011
 20
32.4191
 11
95.3805
 21
33.1257
  0
LINE
  8
0
 10
95.3805
 20
33.1257
 11
96.1846
 21
33.6861
  0
LINE
  8
0
 10
96.1846
 20
33.6861
 11
97.0826
 21
34.0789
  0
LINE
  8
0
 10
97.0826
 20
34.0789
 11
98.04
 21
34.289
  0
LINE
  8
0
 10
98.04
 20
34.289
 11
99.02
 21
34.3082
  0
LINE
  8
0
 10
99.02
 20
34.3082
 11
99.9849
 21
34.1359
  0
LINE
  8
0
 10
99.9849
 20
34.1359
 11
100.898
 21
33.7787
  0
LINE
  8
0
 10
100.898
 20
33.7787
 11
101.723
 21
33.2502
  0
LINE
  8
0
 10
101.723
 20
33.2502
 11
102.43
 21
32.5709
  0
LINE
  8
0
 10
102.43
 20
32.5709
 11
102.99
 21
31.7668
  0
LINE
  8
0
 10
102.99
 20
31.7668
 11
103.383
 21
30.8687
  0
LINE
  8
0
 10
103.383
 20
30.8687
 11
103.593
 21
29.9113
  0
LINE
  8
0
 10
103.593
 20
29.9113
 11
103.612
 21
28.9314
  0
LINE
  8
0
 10
103.612
 20
28.9314
 11
103.44
 21
27.9664
  0
LINE
  8
0
 10
103.44
 20
27.9664
 11
103.083
 21
27.0537
  0
LINE
  8
0
 10
103.083
 20
27.0537
 11
102.554
 21
26.2282
  0
LINE
  8
0
 10
102.554
 20
26.2282
 11
101.875
 21
25.5216
  0
LINE
  8
0
 10
101.875
 20
25.5216
 11
101.071
 21
24.9612
  0
LINE
  8
0
 10
101.071
 20
24.9612
 11
100.173
 21
24.5684
  0
LINE
  8
0
 10
100.173
 20
24.5684
 11
99.2154
 21
24.3583
  0
LINE
  8
0
 10
99.2154
 20
24.3583
 11
98.2354
 21
24.3391
  0
LINE
  8
0
 10
98.2354
 20
24.3391
 11
97.2705
 21
24.5114
  0
ENDSEC
  0
SECTION
  2
OBJECTS
  0
DICTIONARY
  0
ENDSEC
  0
EOF
