<?xml version="1.0" standalone="no"?>
<!DOCTYPE svg PUBLIC "-//W3C//DTD SVG 1.1//EN" "http://www.w3.org/Graphics/SVG/1.1/DTD/svg11.dtd">
<svg width="161" height="161" viewBox="0 -161 161 161" xmlns="http://www.w3.org/2000/svg" version="1.1">
<title>OpenSCAD Model</title>
<path d="
M 84.3166,-0.64219 L 85.3492,-1.26074 L 85.7076,-1.41229 L 85.7836,-2.21731 L 86.0371,-3.13653 L 86.4444,-3.98156
 L 86.9907,-4.72189 L 87.6563,-5.33074 L 88.417,-5.78611 L 89.2455,-6.07156 L 90.1117,-6.17674 L 90.9845,-6.09786
 L 91.8321,-5.83778 L 92.624,-5.40591 L 93.3316,-4.81782 L 93.9293,-4.0948 L 94.3954,-3.26298 L 94.6619,-2.49954
 L 95.0461,-2.43815 L 96.1174,-2.10905 L 97.2431,-2.38973 L 98.0202,-3.04531 L 98.3496,-3.25237 L 98.2954,-4.05917
 L 98.3982,-5.00715 L 98.6647,-5.90658 L 99.0852,-6.72495 L 99.6444,-7.43269 L 100.322,-8.00419 L 101.094,-8.41883
 L 101.932,-8.6616 L 102.806,-8.72375 L 103.685,-8.60301 L 104.536,-8.30375 L 105.329,-7.83679 L 106.034,-7.219
 L 106.628,-6.47273 L 107.013,-5.76191 L 107.403,-5.76296 L 108.38,-5.6283 L 109.638,-6.13679 L 110.241,-6.83932
 L 110.533,-7.09655 L 110.35,-7.88421 L 110.299,-8.83642 L 110.418,-9.76693 L 110.702,-10.6422 L 111.14,-11.4304
 L 111.718,-12.1033 L 112.413,-12.6364 L 113.201,-13.0105 L 114.054,-13.212 L 114.941,-13.2337 L 115.828,-13.0749
 L 116.686,-12.7411 L 117.482,-12.2446 L 118.187,-11.6032 L 118.682,-10.9634 L 119.066,-11.0268 L 119.984,-11.049
 L 121.216,-11.7603 L 121.694,-12.5445 L 121.941,-12.8453 L 121.634,-13.5934 L 121.432,-14.5251 L 121.4,-15.4627
 L 121.539,-16.3721 L 121.846,-17.2205 L 122.308,-17.9772 L 122.909,-18.615 L 123.627,-19.1107 L 124.436,-19.4464
 L 125.308,-19.61 L 126.21,-19.5957 L 127.109,-19.4038 L 127.975,-19.0413 L 128.774,-18.5214 L 129.365,-17.9692
 L 129.733,-18.0934 L 130.643,-18.2639 L 131.713,-19.0996 L 132.085,-20.0132 L 132.28,-20.3496 L 131.857,-21.0388
 L 131.508,-21.926 L 131.326,-22.8462 L 131.318,-23.7663 L 131.484,-24.6528 L 131.819,-25.4739 L 132.309,-26.1998
 L 132.939,-26.8043 L 133.684,-27.2655 L 134.518,-27.5668 L 135.41,-27.6973 L 136.329,-27.6522 L 137.241,-27.4332
 L 138.114,-27.0483 L 138.785,-26.598 L 139.129,-26.7797 L 140.086,-27.1249 L 140.892,-27.9595 L 141.142,-29.0518
 L 141.281,-29.4152 L 140.753,-30.0277 L 140.266,-30.8473 L 139.939,-31.7264 L 139.783,-32.6332 L 139.805,-33.535
 L 140.004,-34.3991 L 140.372,-35.1943 L 140.896,-35.8919 L 141.557,-36.4667 L 142.332,-36.8979 L 143.192,-37.1698
 L 144.106,-37.2728 L 145.042,-37.203 L 145.965,-36.9629 L 146.7,-36.6262 L 147.01,-36.8608 L 148.062,-37.4458
 L 148.548,-38.1142 L 148.633,-39.4263 L 148.712,-39.8073 L 148.092,-40.3272 L 147.48,-41.058 L 147.016,-41.8732
 L 146.717,-42.7434 L 146.594,-43.637 L 146.651,-44.5217 L 146.887,-45.3657 L 147.292,-46.1384 L 147.853,-46.8118
 L 148.549,-47.3616 L 149.354,-47.768 L 150.24,-48.0163 L 151.174,-48.0975 L 152.124,-48.0086 L 152.903,-47.7942
 L 153.172,-48.0755 L 154.122,-48.826 L 154.468,-49.7758 L 154.362,-50.868 L 154.379,-51.2567 L 153.684,-51.6705
 L 152.962,-52.2936 L 152.373,-53.0238 L 151.939,-53.8348 L 151.674,-54.6971 L 151.589,-55.5796 L 151.686,-56.4504
 L 151.962,-57.2782 L 152.408,-58.0328 L 153.006,-58.6871 L 153.736,-59.2174 L 154.57,-59.6046 L 155.48,-59.8346
 L 156.431,-59.8991 L 157.235,-59.8126 L 157.455,-60.1334 L 158.161,-60.9048 L 158.426,-62.1524 L 158.182,-63.0806
 L 158.136,-63.467 L 157.384,-63.7639 L 156.571,-64.2632 L 155.873,-64.8895 L 155.314,-65.6202 L 154.914,-66.4289
 L 154.688,-67.2863 L 154.645,-68.1615 L 154.785,-69.0228 L 155.103,-69.8391 L 155.589,-70.5809 L 156.224,-71.2214
 L 156.986,-71.7375 L 157.847,-72.1104 L 158.775,-72.3267 L 159.583,-72.3702 L 159.748,-72.7222 L 160.266,-73.5116
 L 160.364,-74.9144 L 159.993,-75.7477 L 159.885,-76.1217 L 159.095,-76.2942 L 158.214,-76.6567 L 157.424,-77.1629
 L 156.755,-77.7944 L 156.23,-78.5285 L 155.87,-79.3386 L 155.687,-80.1955 L 155.687,-81.0681 L 155.87,-81.9249
 L 156.23,-82.735 L 156.755,-83.4691 L 157.424,-84.1007 L 158.214,-84.6068 L 159.095,-84.9693 L 159.885,-85.1418
 L 159.993,-85.5158 L 160.364,-86.3491 L 160.266,-87.752 L 159.748,-88.5414 L 159.583,-88.8933 L 158.775,-88.9368
 L 157.847,-89.1532 L 156.986,-89.5261 L 156.224,-90.0421 L 155.589,-90.6826 L 155.103,-91.4244 L 154.785,-92.2407
 L 154.645,-93.1021 L 154.688,-93.9772 L 154.914,-94.8347 L 155.314,-95.6433 L 155.873,-96.374 L 156.571,-97.0003
 L 157.384,-97.4996 L 158.136,-97.7966 L 158.182,-98.183 L 158.426,-99.1111 L 158.161,-100.359 L 157.455,-101.13
 L 157.235,-101.451 L 156.431,-101.364 L 155.48,-101.429 L 154.57,-101.659 L 153.736,-102.046 L 153.006,-102.576
 L 152.408,-103.231 L 151.962,-103.985 L 151.686,-104.813 L 151.589,-105.684 L 151.674,-106.566 L 151.939,-107.429
 L 152.373,-108.24 L 152.962,-108.97 L 153.684,-109.593 L 154.379,-110.007 L 154.362,-110.396 L 154.468,-111.488
 L 154.122,-112.438 L 153.172,-113.188 L 152.903,-113.469 L 152.124,-113.255 L 151.174,-113.166 L 150.24,-113.247
 L 149.354,-113.495 L 148.549,-113.902 L 147.853,-114.452 L 147.292,-115.125 L 146.887,-115.898 L 146.651,-116.742
 L 146.594,-117.627 L 146.717,-118.52 L 147.016,-119.39 L 147.48,-120.206 L 148.092,-120.936 L 148.712,-121.456
 L 148.633,-121.837 L 148.548,-123.149 L 148.062,-123.818 L 147.01,-124.403 L 146.7,-124.637 L 145.965,-124.301
 L 145.042,-124.061 L 144.106,-123.991 L 143.192,-124.094 L 142.332,-124.366 L 141.557,-124.797 L 140.896,-125.372
 L 140.372,-126.069 L 140.004,-126.864 L 139.805,-127.729 L 139.783,-128.63 L 139.939,-129.537 L 140.266,-130.416
 L 140.753,-131.236 L 141.281,-131.848 L 141.142,-132.212 L 140.892,-133.304 L 140.086,-134.139 L 139.129,-134.484
 L 138.785,-134.666 L 138.114,-134.215 L 137.241,-133.83 L 136.329,-133.611 L 135.41,-133.566 L 134.518,-133.697
 L 133.684,-133.998 L 132.939,-134.459 L 132.309,-135.064 L 131.819,-135.79 L 131.484,-136.611 L 131.318,-137.497
 L 131.326,-138.417 L 131.508,-139.338 L 131.857,-140.225 L 132.28,-140.914 L 132.085,-141.25 L 131.713,-142.164
 L 130.643,-143 L 129.733,-143.17 L 129.365,-143.294 L 128.774,-142.742 L 127.975,-142.222 L 127.109,-141.86
 L 126.21,-141.668 L 125.308,-141.653 L 124.436,-141.817 L 123.627,-142.153 L 122.909,-142.649 L 122.308,-143.286
 L 121.846,-144.043 L 121.539,-144.891 L 121.4,-145.801 L 121.432,-146.738 L 121.634,-147.67 L 121.941,-148.418
 L 121.694,-148.719 L 121.216,-149.503 L 119.984,-150.215 L 119.066,-150.237 L 118.682,-150.3 L 118.187,-149.66
 L 117.482,-149.019 L 116.686,-148.522 L 115.828,-148.189 L 114.941,-148.03 L 114.054,-148.052 L 113.201,-148.253
 L 112.413,-148.627 L 111.718,-149.16 L 111.14,-149.833 L 110.702,-150.621 L 110.418,-151.497 L 110.299,-152.427
 L 110.35,-153.379 L 110.533,-154.167 L 110.241,-154.424 L 109.638,-155.127 L 108.38,-155.635 L 107.403,-155.501
 L 107.013,-155.502 L 106.628,-154.791 L 106.034,-154.045 L 105.329,-153.427 L 104.536,-152.96 L 103.685,-152.661
 L 102.806,-152.54 L 101.932,-152.602 L 101.094,-152.845 L 100.322,-153.259 L 99.6444,-153.831 L 99.0852,-154.539
 L 98.6647,-155.357 L 98.3982,-156.256 L 98.2954,-157.204 L 98.3496,-158.011 L 98.0202,-158.218 L 97.2431,-158.874
 L 96.1174,-159.154 L 95.0461,-158.825 L 94.6619,-158.764 L 94.3954,-158.001 L 93.9293,-157.169 L 93.3316,-156.446
 L 92.624,-155.858 L 91.8321,-155.426 L 90.9845,-155.166 L 90.1117,-155.087 L 89.2455,-155.192 L 88.417,-155.477
 L 87.6563,-155.933 L 86.9907,-156.542 L 86.4444,-157.282 L 86.0371,-158.127 L 85.7836,-159.046 L 85.7076,-159.851
 L 85.3492,-160.003 L 84.3166,-160.621 L 83.4949,-160.708 L 82.3163,-160.125 L 81.9469,-160.003 L 81.8064,-159.207
 L 81.4797,-158.311 L 81.0057,-157.501 L 80.4017,-156.807 L 79.6893,-156.254 L 78.8943,-155.861 L 78.0456,-155.643
 L 77.1737,-155.608 L 76.3101,-155.757 L 75.4862,-156.084 L 74.7316,-156.579 L 74.0736,-157.222 L 73.536,-157.991
 L 73.1383,-158.857 L 72.9342,-159.64 L 72.5561,-159.732 L 71.4312,-160.179 L 70.4358,-160.004 L 69.5429,-159.366
 L 69.1979,-159.186 L 69.1869,-158.377 L 69.0082,-157.441 L 68.6702,-156.566 L 68.1853,-155.784 L 67.5708,-155.123
 L 66.8492,-154.608 L 66.0464,-154.257 L 65.1914,-154.083 L 64.3151,-154.091 L 63.4493,-154.282 L 62.6252,-154.649
 L 61.8726,-155.178 L 61.2187,-155.851 L 60.6871,-156.642 L 60.3601,-157.382 L 59.9722,-157.412 L 58.9512,-157.638
 L 57.7381,-157.243 L 57.0566,-156.567 L 56.745,-156.335 L 56.8638,-155.535 L 56.8376,-154.582 L 56.6444,-153.664
 L 56.2912,-152.814 L 55.7907,-152.064 L 55.161,-151.439 L 54.4249,-150.964 L 53.609,-150.655 L 52.7428,-150.522
 L 51.8575,-150.572 L 50.9853,-150.802 L 50.1575,-151.203 L 49.4042,-151.762 L 48.7525,-152.459 L 48.3111,-153.136
 L 47.9233,-153.104 L 46.9811,-153.157 L 45.7172,-152.54 L 45.181,-151.802 L 44.9107,-151.523 L 45.1564,-150.752
 L 45.2834,-149.807 L 45.2399,-148.87 L 45.0275,-147.975 L 44.6539,-147.154 L 44.1325,-146.437 L 43.4822,-145.849
 L 42.7265,-145.413 L 41.8927,-145.144 L 41.0109,-145.051 L 40.1131,-145.137 L 39.2316,-145.401 L 38.3984,-145.832
 L 37.6435,-146.415 L 37.0991,-147.012 L 36.7216,-146.918 L 35.8144,-146.823 L 34.6486,-146.037 L 34.2235,-145.194
 L 34.0016,-144.874 L 34.3676,-144.153 L 34.6446,-143.241 L 34.7521,-142.309 L 34.686,-141.391 L 34.4489,-140.521
 L 34.0493,-139.73 L 33.5016,-139.046 L 32.8257,-138.494 L 32.0459,-138.094 L 31.1905,-137.861 L 30.2904,-137.802
 L 29.378,-137.921 L 28.4864,-138.213 L 27.6479,-138.667 L 27.0146,-139.17 L 26.6571,-139.016 L 25.7309,-138.764
 L 24.7831,-137.911 L 24.468,-136.914 L 24.3002,-136.563 L 24.7772,-135.91 L 25.1969,-135.053 L 25.4524,-134.151
 L 25.5345,-133.234 L 25.44,-132.337 L 25.1726,-131.492 L 24.7417,-130.729 L 24.1631,-130.076 L 23.4575,-129.556
 L 22.6506,-129.189 L 21.7715,-128.987 L 20.8518,-128.958 L 19.925,-129.103 L 19.0245,-129.416 L 18.3188,-129.811
 L 17.9905,-129.602 L 16.9917,-129.148 L 16.342,-128.373 L 16.167,-127.175 L 16.0578,-126.802 L 16.6333,-126.234
 L 17.185,-125.456 L 17.582,-124.606 L 17.8099,-123.715 L 17.8606,-122.814 L 17.7322,-121.937 L 17.4293,-121.115
 L 16.963,-120.377 L 16.3499,-119.751 L 15.6124,-119.259 L 14.777,-118.919 L 13.874,-118.743 L 12.9359,-118.737
 L 11.9967,-118.902 L 11.2369,-119.178 L 10.9463,-118.92 L 9.8524,-118.19 L 9.51632,-117.435 L 9.5357,-116.232
 L 9.48777,-115.846 L 10.1469,-115.377 L 10.8162,-114.698 L 11.3444,-113.923 L 11.7124,-113.08 L 11.9069,-112.199
 L 11.9209,-111.312 L 11.7539,-110.452 L 11.4118,-109.649 L 10.9072,-108.933 L 10.2581,-108.329 L 9.48812,-107.859
 L 8.62504,-107.54 L 7.70005,-107.384 L 6.74659,-107.396 L 5.9522,-107.547 L 5.70693,-107.245 L 4.88628,-106.482
 L 4.56651,-105.367 L 4.74572,-104.366 L 4.76035,-103.977 L 5.48611,-103.621 L 6.25568,-103.058 L 6.90139,-102.377
 L 7.3999,-101.604 L 7.73316,-100.766 L 7.88918,-99.8931 L 7.86228,-99.0172 L 7.65345,-98.1699 L 7.27024,-97.3819
 L 6.72648,-96.6816 L 6.04185,-96.0943 L 5.24107,-95.6412 L 4.3531,-95.3387 L 3.41001,-95.1979 L 2.60171,-95.2194
 L 2.40807,-94.882 L 1.80288,-94.1031 L 1.61398,-92.7589 L 1.92117,-91.8859 L 1.99796,-91.5044 L 2.77151,-91.269
 L 3.62144,-90.8367 L 4.36793,-90.2686 L 4.98403,-89.5853 L 5.44744,-88.8114 L 5.74145,-87.9749 L 5.8554,-87.1061
 L 5.78518,-86.2363 L 5.53333,-85.397 L 5.10897,-84.6185 L 4.5274,-83.929 L 3.80967,-83.3533 L 2.98171,-82.9123
 L 2.07345,-82.622 L 1.27215,-82.5136 L 1.13516,-82.1495 L 0.695199,-81.343 L 0.695199,-79.9205 L 1.13516,-79.1141
 L 1.27215,-78.7499 L 2.07345,-78.6416 L 2.98171,-78.3512 L 3.80967,-77.9102 L 4.5274,-77.3346 L 5.10897,-76.645
 L 5.53333,-75.8666 L 5.78518,-75.0273 L 5.8554,-74.1575 L 5.74145,-73.2886 L 5.44744,-72.4522 L 4.98403,-71.6783
 L 4.36793,-70.9949 L 3.62144,-70.4269 L 2.77151,-69.9946 L 1.99796,-69.7591 L 1.92117,-69.3777 L 1.61398,-68.5046
 L 1.80288,-67.1605 L 2.40807,-66.3816 L 2.60171,-66.0441 L 3.41001,-66.0657 L 4.3531,-65.9248 L 5.24107,-65.6223
 L 6.04185,-65.1693 L 6.72648,-64.582 L 7.27024,-63.8816 L 7.65345,-63.0936 L 7.86228,-62.2463 L 7.88918,-61.3705
 L 7.73316,-60.4977 L 7.3999,-59.6595 L 6.90139,-58.8862 L 6.25568,-58.2057 L 5.48611,-57.6427 L 4.76035,-57.2861
 L 4.74572,-56.8973 L 4.56651,-55.8966 L 4.88628,-54.7814 L 5.70693,-54.0182 L 5.9522,-53.7161 L 6.74659,-53.8671
 L 7.70005,-53.8793 L 8.62504,-53.7232 L 9.48812,-53.4044 L 10.2581,-52.9346 L 10.9072,-52.3305 L 11.4118,-51.6142
 L 11.7539,-50.8114 L 11.9209,-49.9512 L 11.9069,-49.0646 L 11.7124,-48.1838 L 11.3444,-47.3406 L 10.8162,-46.5653
 L 10.1469,-45.8861 L 9.48777,-45.4178 L 9.5357,-45.0317 L 9.51632,-43.8282 L 9.8524,-43.0734 L 10.9463,-42.344
 L 11.2369,-42.0852 L 11.9967,-42.3617 L 12.9359,-42.5267 L 13.874,-42.521 L 14.777,-42.3448 L 15.6124,-42.0045
 L 16.3499,-41.5124 L 16.963,-40.8863 L 17.4293,-40.1488 L 17.7322,-39.3265 L 17.8606,-38.4492 L 17.8099,-37.5486
 L 17.582,-36.6572 L 17.185,-35.8073 L 16.6333,-35.0295 L 16.0578,-34.4615 L 16.167,-34.0881 L 16.342,-32.8902
 L 16.9917,-32.1159 L 17.9905,-31.6615 L 18.3188,-31.4527 L 19.0245,-31.8474 L 19.925,-32.1609 L 20.8518,-32.3058
 L 21.7715,-32.2767 L 22.6506,-32.0749 L 23.4575,-31.7075 L 24.1631,-31.1878 L 24.7417,-30.5346 L 25.1726,-29.7716
 L 25.44,-28.9262 L 25.5345,-28.0292 L 25.4524,-27.1128 L 25.1969,-26.2102 L 24.7772,-25.354 L 24.3002,-24.701
 L 24.468,-24.35 L 24.7831,-23.3529 L 25.7309,-22.4994 L 26.6571,-22.2473 L 27.0146,-22.0938 L 27.6479,-22.5967
 L 28.4864,-23.0506 L 29.378,-23.3422 L 30.2904,-23.4611 L 31.1905,-23.4028 L 32.0459,-23.1696 L 32.8257,-22.7698
 L 33.5016,-22.218 L 34.0493,-21.5339 L 34.4489,-20.7424 L 34.686,-19.8721 L 34.7521,-18.9544 L 34.6446,-18.0225
 L 34.3676,-17.1101 L 34.0016,-16.3891 L 34.2235,-16.0695 L 34.6486,-15.2269 L 35.8144,-14.4405 L 36.7216,-14.3452
 L 37.0991,-14.2511 L 37.6435,-14.849 L 38.3984,-15.4315 L 39.2316,-15.8624 L 40.1131,-16.1261 L 41.0109,-16.213
 L 41.8927,-16.12 L 42.7265,-15.8505 L 43.4822,-15.4142 L 44.1325,-14.8269 L 44.6539,-14.1097 L 45.0275,-13.2887
 L 45.2399,-12.3935 L 45.2834,-11.4565 L 45.1564,-10.5114 L 44.9107,-9.74102 L 45.181,-9.46114 L 45.7172,-8.72318
 L 46.9811,-8.10671 L 47.9233,-8.15989 L 48.3111,-8.12754 L 48.7525,-8.80503 L 49.4042,-9.50114 L 50.1575,-10.0601
 L 50.9853,-10.4618 L 51.8575,-10.6916 L 52.7428,-10.7413 L 53.609,-10.609 L 54.4249,-10.2995 L 55.161,-9.82414
 L 55.7907,-9.19993 L 56.2912,-8.44949 L 56.6444,-7.59994 L 56.8376,-6.68198 L 56.8638,-5.7288 L 56.745,-4.92898
 L 57.0566,-4.69608 L 57.7381,-4.02009 L 58.9512,-3.62594 L 59.9722,-3.85159 L 60.3601,-3.88184 L 60.6871,-4.62138
 L 61.2187,-5.41299 L 61.8726,-6.08558 L 62.6252,-6.61482 L 63.4493,-6.98158 L 64.3151,-7.1726 L 65.1914,-7.18099
 L 66.0464,-7.00645 L 66.8492,-6.65527 L 67.5708,-6.14016 L 68.1853,-5.47973 L 68.6702,-4.69784 L 69.0082,-3.82276
 L 69.1869,-2.88613 L 69.1979,-2.0776 L 69.5429,-1.89771 L 70.4358,-1.25987 L 71.4312,-1.08436 L 72.5561,-1.53184
 L 72.9342,-1.62394 L 73.1383,-2.40633 L 73.536,-3.27299 L 74.0736,-4.04176 L 74.7316,-4.68485 L 75.4862,-5.17907
 L 76.3101,-5.50651 L 77.1737,-5.65534 L 78.0456,-5.62022 L 78.8943,-5.40237 L 79.6893,-5.00968 L 80.4017,-4.45637
 L 81.0057,-3.7624 L 81.4797,-2.95286 L 81.8064,-2.05703 L 81.9469,-1.26074 L 82.3163,-1.13851 L 83.4949,-0.55581
 z
M 73.1965,-9.88967 L 63.4234,-11.6129 L 53.9853,-14.6795 L 45.0659,-19.0299 L 36.8387,-24.5792 L 29.4639,-31.2195
 L 23.085,-38.8216 L 17.8261,-47.2374 L 13.7898,-56.3033 L 11.0544,-65.8426 L 9.67327,-75.6699 L 9.67327,-85.5937
 L 11.0544,-95.4209 L 13.7898,-104.96 L 17.8261,-114.026 L 23.085,-122.442 L 29.4639,-130.044 L 36.8387,-136.684
 L 45.0659,-142.234 L 53.9853,-146.584 L 63.4234,-149.651 L 73.1965,-151.374 L 83.1142,-151.72 L 92.9837,-150.683
 L 102.613,-148.282 L 111.814,-144.565 L 120.408,-139.603 L 128.228,-133.493 L 135.122,-126.354 L 140.955,-118.326
 L 145.614,-109.564 L 149.008,-100.238 L 151.071,-90.5314 L 151.764,-80.6318 L 151.071,-70.7321 L 149.008,-61.0252
 L 145.614,-51.6999 L 140.955,-42.9377 L 135.122,-34.9092 L 128.228,-27.7706 L 120.408,-21.6609 L 111.814,-16.699
 L 102.613,-12.9814 L 92.9837,-10.5807 L 83.1142,-9.54333 z
M 92.4627,-13.5351 L 101.686,-15.8346 L 110.499,-19.3953 L 118.731,-24.148 L 126.221,-30 L 132.824,-36.8375
 L 138.411,-44.5274 L 142.873,-52.9201 L 146.124,-61.8521 L 148.1,-71.1497 L 148.764,-80.6318 L 148.1,-90.1139
 L 146.124,-99.4114 L 142.873,-108.343 L 138.411,-116.736 L 132.824,-124.426 L 126.221,-131.264 L 118.731,-137.116
 L 110.499,-141.868 L 101.686,-145.429 L 92.4627,-147.728 L 83.0095,-148.722 L 73.5101,-148.39 L 64.1492,-146.74
 L 55.1092,-143.802 L 46.5659,-139.636 L 38.6857,-134.32 L 31.6219,-127.96 L 25.512,-120.679 L 20.475,-112.618
 L 16.6088,-103.934 L 13.9888,-94.7972 L 12.666,-85.3844 L 12.666,-75.8791 L 13.9888,-66.4664 L 16.6088,-57.3293
 L 20.475,-48.6459 L 25.512,-40.5849 L 31.6219,-33.3035 L 38.6857,-26.9432 L 46.5659,-21.6279 L 55.1092,-17.4611
 L 64.1492,-14.5238 L 73.5101,-12.8732 L 83.0095,-12.5415 z
M 97.04,-127.975 L 96.0826,-128.185 L 95.1846,-128.577 L 94.3805,-129.138 L 93.7011,-129.844 L 93.1727,-130.67
 L 92.8154,-131.583 L 92.6431,-132.548 L 92.6623,-133.528 L 92.8724,-134.485 L 93.2652,-135.383 L 93.8257,-136.187
 L 94.5322,-136.866 L 95.3577,-137.395 L 96.2705,-137.752 L 97.2354,-137.924 L 98.2154,-137.905 L 99.1728,-137.695
 L 100.071,-137.302 L 100.875,-136.742 L 101.554,-136.035 L 102.083,-135.21 L 102.44,-134.297 L 102.612,-133.332
 L 102.593,-132.352 L 102.383,-131.395 L 101.99,-130.497 L 101.43,-129.693 L 100.723,-129.013 L 99.8977,-128.485
 L 98.9849,-128.128 L 98.02,-127.955 z
M 75.5491,-32.2731 L 68.8683,-33.4511 L 62.4165,-35.5475 L 56.3193,-38.5213 L 50.6952,-42.3148 L 45.6539,-46.854
 L 41.2933,-52.0507 L 37.6984,-57.8037 L 34.9392,-64.001 L 33.0693,-70.5221 L 32.1252,-77.2399 L 32.1252,-84.0237
 L 33.0693,-90.7415 L 34.9392,-97.2625 L 37.6984,-103.46 L 41.2933,-109.213 L 45.6539,-114.41 L 50.6952,-118.949
 L 56.3193,-122.742 L 62.4165,-125.716 L 68.8683,-127.812 L 75.5491,-128.99 L 82.3287,-129.227 L 89.0754,-128.518
 L 95.6577,-126.877 L 101.948,-124.336 L 107.823,-120.944 L 113.168,-116.767 L 117.881,-111.887 L 121.868,-106.399
 L 125.053,-100.409 L 127.373,-94.0346 L 128.784,-87.3991 L 129.257,-80.6318 L 128.784,-73.8645 L 127.373,-67.2289
 L 125.053,-60.8542 L 121.868,-54.8644 L 117.881,-49.3762 L 113.168,-44.4964 L 107.823,-40.3198 L 101.948,-36.9279
 L 95.6577,-34.3867 L 89.0754,-32.7455 L 82.3287,-32.0364 z
M 34.9686,-108.098 L 34.0425,-108.419 L 33.1969,-108.915 L 32.4642,-109.566 L 31.8726,-110.347 L 31.4449,-111.229
 L 31.1974,-112.178 L 31.1397,-113.156 L 31.274,-114.127 L 31.5951,-115.053 L 32.0908,-115.899 L 32.7418,-116.632
 L 33.5233,-117.223 L 34.4053,-117.651 L 35.3537,-117.898 L 36.3321,-117.956 L 37.3031,-117.822 L 38.2291,-117.501
 L 39.0748,-117.005 L 39.8075,-116.354 L 40.399,-115.572 L 40.8268,-114.691 L 41.0743,-113.742 L 41.132,-112.764
 L 40.9977,-111.793 L 40.6766,-110.867 L 40.1809,-110.021 L 39.5298,-109.288 L 38.7483,-108.697 L 37.8664,-108.269
 L 36.918,-108.022 L 35.9395,-107.964 z
M 134.656,-75.7279 L 133.718,-76.0124 L 132.854,-76.4744 L 132.096,-77.0962 L 131.474,-77.8539 L 131.012,-78.7184
 L 130.728,-79.6563 L 130.632,-80.6318 L 130.728,-81.6072 L 131.012,-82.5452 L 131.474,-83.4096 L 132.096,-84.1673
 L 132.854,-84.7891 L 133.718,-85.2512 L 134.656,-85.5357 L 135.632,-85.6318 L 136.607,-85.5357 L 137.545,-85.2512
 L 138.41,-84.7891 L 139.167,-84.1673 L 139.789,-83.4096 L 140.251,-82.5452 L 140.536,-81.6072 L 140.632,-80.6318
 L 140.536,-79.6563 L 140.251,-78.7184 L 139.789,-77.8539 L 139.167,-77.0962 L 138.41,-76.4744 L 137.545,-76.0124
 L 136.607,-75.7279 L 135.632,-75.6318 z
M 35.3537,-43.3651 L 34.4053,-43.6126 L 33.5233,-44.0404 L 32.7418,-44.632 L 32.0908,-45.3647 L 31.5951,-46.2103
 L 31.274,-47.1364 L 31.1397,-48.1073 L 31.1974,-49.0858 L 31.4449,-50.0342 L 31.8726,-50.9161 L 32.4642,-51.6976
 L 33.1969,-52.3487 L 34.0425,-52.8443 L 34.9686,-53.1654 L 35.9395,-53.2997 L 36.918,-53.242 L 37.8664,-52.9945
 L 38.7483,-52.5668 L 39.5298,-51.9752 L 40.1809,-51.2425 L 40.6766,-50.3969 L 40.9977,-49.4708 L 41.132,-48.4999
 L 41.0743,-47.5214 L 40.8268,-46.573 L 40.399,-45.6911 L 39.8075,-44.9096 L 39.0748,-44.2585 L 38.2291,-43.7629
 L 37.3031,-43.4417 L 36.3321,-43.3074 z
M 96.2705,-23.5114 L 95.3577,-23.8686 L 94.5322,-24.3971 L 93.8257,-25.0764 L 93.2652,-25.8806 L 92.8724,-26.7786
 L 92.6623,-27.736 L 92.6431,-28.716 L 92.8154,-29.6809 L 93.1727,-30.5936 L 93.7011,-31.4191 L 94.3805,-32.1257
 L 95.1846,-32.6862 L 96.0826,-33.0789 L 97.04,-33.289 L 98.02,-33.3083 L 98.9849,-33.1359 L 99.8977,-32.7787
 L 100.723,-32.2503 L 101.43,-31.5709 L 101.99,-30.7668 L 102.383,-29.8688 L 102.593,-28.9114 L 102.612,-27.9314
 L 102.44,-26.9665 L 102.083,-26.0537 L 101.554,-25.2282 L 100.875,-24.5216 L 100.071,-23.9612 L 99.1728,-23.5684
 L 98.2154,-23.3583 L 97.2354,-23.3391 z
" stroke="black" fill="lightgray" stroke-width="0.5"/></svg>
